<svg viewBox="0 0 42 32" xmlns="http://www.w3.org/2000/svg" xmlns:xlink="http://www.w3.org/1999/xlink" width="42.000000" height="32.000000" fill="none" customFrame="#000000">
	<path id="discord" d="M35.578 2.67995C32.8186 1.40994 29.9054 0.508951 26.9131 1.76972e-15C26.5036 0.735868 26.1331 1.49298 25.8031 2.26816C22.6157 1.78531 19.3743 1.78531 16.1868 2.26816C15.8567 1.49306 15.4862 0.735957 15.0769 0C12.0826 0.513249 9.16755 1.41638 6.40533 2.68659C0.921627 10.8427 -0.56492 18.7962 0.178354 26.6368C3.38975 29.022 6.98422 30.8361 10.8055 32C11.666 30.8366 12.4273 29.6024 13.0816 28.3105C11.8389 27.8439 10.6396 27.2683 9.49735 26.5903C9.79797 26.3711 10.092 26.1453 10.3761 25.9261C13.6996 27.4974 17.3272 28.312 20.9999 28.312C24.6727 28.312 28.3002 27.4974 31.6238 25.9261C31.9112 26.1619 32.2052 26.3877 32.5025 26.5903C31.3581 27.2694 30.1565 27.8461 28.9117 28.3138C29.5651 29.6051 30.3265 30.8383 31.1877 32C35.0123 30.8407 38.6095 29.0276 41.8215 26.6401C42.6936 17.5475 40.3316 9.66708 35.578 2.67995ZM14.0231 21.8149C11.9518 21.8149 10.2406 19.9253 10.2406 17.6007C10.2406 15.276 11.8923 13.3699 14.0165 13.3699C16.1406 13.3699 17.8385 15.276 17.8022 17.6007C17.7659 19.9253 16.134 21.8149 14.0231 21.8149ZM27.9768 21.8149C25.9022 21.8149 24.1977 19.9253 24.1977 17.6007C24.1977 15.276 25.8494 13.3699 27.9768 13.3699C30.1042 13.3699 31.789 15.276 31.7526 17.6007C31.7163 19.9253 30.0877 21.8149 27.9768 21.8149Z" fill="rgb(102,108.12,255)" fill-rule="nonzero" />
</svg>
