<svg viewBox="0 0 41 42" xmlns="http://www.w3.org/2000/svg" xmlns:xlink="http://www.w3.org/1999/xlink" width="41.000000" height="42.000000" fill="none" customFrame="#000000">
	<path id="firefox" d="M29.6636 16.5872C29.1482 15.6795 28.5064 14.8484 27.7571 14.1184L27.7598 14.1095C25.2628 11.6348 24.4638 8.99615 24.4638 6.67837C24.4638 3.07272 26.3975 0.243571 26.8807 0.0162399C26.8854 0.0141337 26.8923 0.0094225 26.8955 0.00836939C26.8987 0.00731629 26.9029 0.00260504 26.9056 0.00260504C26.9182 -0.000886823 26.9316 -0.000886823 26.9442 0.00260504C26.9571 0.00415698 26.969 0.0103647 26.9776 0.0200089C26.9861 0.0296234 26.9908 0.0419607 26.9908 0.0547537L26.9908 0.0550939C27.0609 0.334776 27.1636 0.605368 27.2969 0.861438C27.3599 0.989029 27.4325 1.12771 27.5231 1.28163C27.6814 1.55111 27.844 1.8064 28.0065 2.06114C31.2156 7.09825 35.1532 9.41477 37.4749 15.1553L37.4749 15.1496L37.4749 15.1466L37.4748 15.1464L37.4748 15.1453C37.4746 15.1404 37.4742 15.1364 37.4738 15.1335L37.4735 15.1297C37.4735 15.1286 37.4738 15.1286 37.4748 15.1301L37.4748 15.1269C37.1076 12.9738 36.4064 10.89 35.3962 8.94965C36.8129 9.67613 38.6219 11.9742 39.5137 14.1026L39.5158 14.1C40.4992 16.5619 41 19.1793 41 21.8123C41 22.6505 40.9493 23.4903 40.8472 24.3272C40.8164 24.5924 40.7884 24.8524 40.7539 25.1151C39.8764 30.1346 37.1335 34.6455 33.0668 37.7572C29.0001 40.8688 23.9051 42.3552 18.7875 41.9228C13.6699 41.4905 8.90169 39.1709 5.4241 35.4218C1.94648 31.6728 0.0122345 26.7669 0.00316984 21.6724L0.00316984 21.5674C0.0173304 20.9467 0.0698764 20.3278 0.160405 19.7141C0.295038 18.4615 0.554392 17.3373 0.560367 17.3127C1.05878 15.0969 1.99472 13.0015 3.31415 11.1465C3.89106 10.335 4.53551 9.57298 5.24075 8.86834C5.85739 8.24252 6.52868 7.67213 7.24676 7.16381C7.46169 7.01981 7.69139 6.89887 7.93202 6.80293C7.92073 6.97361 7.90882 7.30091 7.90882 7.71346C7.90882 9.00358 8.02532 11.1274 8.64168 11.9023L8.65119 11.9023C8.7497 11.8997 11.727 11.8467 13.2241 12.8121C13.3888 12.9193 13.5259 13.0086 13.6477 13.0911C13.8314 13.2142 14.0082 13.3471 14.1773 13.4892C14.4903 13.7524 14.8435 14.1027 15.5876 14.8302C16.9804 16.1907 20.5523 17.6011 20.5603 17.7666C20.5582 17.7673 20.5562 17.768 20.5542 17.7687C20.4922 18.2916 18.7124 20.0083 18.0871 20.0083C12.2506 20.0083 11.3032 23.5103 11.3032 23.5103L11.3032 23.5119C11.5617 26.4593 13.6312 28.8882 16.1377 30.1724C16.0392 30.1289 15.9492 30.0795 15.8533 30.0338C13.0674 28.7114 11.3422 26.6145 10.578 24.3955C11.34 26.6194 13.0667 28.7215 15.8582 30.045C15.9578 30.0961 16.0573 30.1453 16.1569 30.1926C17.5814 31.1559 24.6301 33.5175 31.9965 27.5661L32.0081 27.5399C35.3358 24.8166 37.6079 20.9526 37.6079 16.8502C37.6079 16.3008 37.5672 15.7471 37.4827 15.1913C38.1727 17.1576 38.5157 19.2065 38.5157 21.2517C38.5157 23.8711 37.9531 26.4844 36.8362 28.9103C34.7664 33.3152 30.107 37.8193 22.9413 38.664C30.1089 37.8219 34.7687 33.3171 36.8399 28.9092C37.9567 26.4833 38.5193 23.8699 38.5193 21.2505C38.5193 19.1987 38.1741 17.1432 37.4796 15.1711C37.4807 15.1778 37.4817 15.1846 37.4827 15.1913C37.4815 15.1879 37.4803 15.1845 37.4791 15.181C37.5633 15.7365 37.6039 16.2899 37.6039 16.839C37.6039 20.9444 35.3332 24.8119 32.0049 27.5319C32.0043 27.5333 32.0037 27.5347 32.0031 27.536L31.9915 27.5623C24.6251 33.5147 17.5786 31.1547 16.1519 30.1887L16.1376 30.1798C16.252 30.2386 16.368 30.2911 16.4839 30.3437C16.6848 30.4322 16.8857 30.5138 17.0866 30.5884C17.9461 30.8901 18.8463 31.0624 19.7573 31.0995C25.8556 31.3813 29.0226 27.0159 29.0226 22.6679C29.0226 19.7216 27.5683 16.7832 24.5864 15.3043C26.328 15.0796 28.0916 15.5043 29.5353 16.4962C29.5798 16.5272 29.6211 16.5582 29.6629 16.5892C29.7758 16.6738 29.8811 16.7578 29.9706 16.8392L29.9696 16.8413C32.2036 18.8831 32.8041 21.3301 32.8042 23.3702C32.8042 23.4728 32.8026 23.5743 32.7997 23.6747C32.8027 23.5729 32.8043 23.4699 32.8043 23.3659C32.8043 21.3258 32.2043 18.8789 29.9713 16.8372C29.8818 16.7558 29.7764 16.6718 29.6636 16.5872ZM0.103153 21.6175C0.0878985 21.4342 0.0810839 21.241 0.0810839 21.0422C0.0810839 20.7684 0.0940022 20.484 0.115598 20.1998C0.084858 20.4453 0.064522 20.6952 0.064522 20.9659C0.064522 21.1692 0.0759958 21.3841 0.103153 21.6175ZM5.3088 17.7664L5.30854 17.7666C5.73635 18.6844 6.42338 19.4595 7.28635 19.9979C8.1476 20.5353 9.14715 20.8138 10.1644 20.8001C10.1648 20.7964 10.1653 20.7926 10.1657 20.7889C9.14632 20.8038 8.14446 20.5252 7.28148 19.9868C6.42198 19.4505 5.737 18.6795 5.3088 17.7664ZM13.6386 13.084C13.5184 13.0015 13.3812 12.9101 13.2149 12.8051C11.7178 11.8396 8.74056 11.8927 8.64046 11.8953C10.0053 10.3074 11.6876 9.01772 13.5808 8.10806C13.3752 8.88967 13.2725 9.69061 13.2725 10.4913C13.2725 11.3643 13.3947 12.2371 13.6386 13.084Z" fill="rgb(102,108.12,255)" fill-rule="evenodd" />
</svg>
