<svg viewBox="0 0 42 35" xmlns="http://www.w3.org/2000/svg" xmlns:xlink="http://www.w3.org/1999/xlink" width="42.000000" height="35.000000" fill="none" customFrame="#000000">
	<path id="spacetheme" d="M14.9992 9.21314e-08L10.2261 9.21314e-08C8.88318 -3.5143e-07 7.55342 0.258676 6.31274 0.761223C5.07205 1.26377 3.94473 2.00037 2.99515 2.92895C2.04557 3.85754 1.29232 4.95993 0.778415 6.17319C0.264506 7.38644 2.81909e-07 8.6868 4.7107e-08 10C-1.87695e-07 11.3132 0.264505 12.6136 0.778414 13.8269C1.29232 15.0401 2.04557 16.1425 2.99515 17.0711C3.94473 17.9997 5.07205 18.7363 6.31273 19.2388C7.55342 19.7414 8.88329 20 10.2262 20L17.1354 20C17.3536 20 17.5306 19.827 17.5306 19.6136L17.5306 15.3864C17.5306 15.173 17.3536 15 17.1354 15L10.2261 15.0004C9.55458 15.0004 8.88964 14.8711 8.26925 14.6198C7.64886 14.3685 7.08515 14.0002 6.61032 13.5358C6.1355 13.0715 5.75884 12.5203 5.50187 11.9136C5.24489 11.3069 5.11263 10.6567 5.11263 10C5.11263 9.34336 5.24489 8.69313 5.50187 8.08645C5.75884 7.47977 6.1355 6.92853 6.61033 6.4642C7.08515 5.99987 7.64886 5.63154 8.26925 5.38025C8.88965 5.12895 9.55458 4.99962 10.2261 4.99962L11.2967 5C13.7041 4.96942 15.7045 3.05112 15.7045 0.689656C15.7045 0.308769 15.3887 9.21314e-08 14.9992 9.21314e-08Z" fill="rgb(135,140,255)" fill-rule="nonzero" />
	<path id="spacetheme" d="M31.7739 15L24.8648 15C24.6465 15 24.4696 15.173 24.4696 15.3864L24.4696 19.6136C24.4696 19.827 24.6465 20 24.8648 20L31.7739 20C32.4454 20 33.1104 20.1289 33.7308 20.3802C34.3511 20.6315 34.9148 20.9998 35.3897 21.4642C35.8645 21.9285 36.2412 22.4797 36.4981 23.0864C36.7551 23.6931 36.8874 24.3433 36.8874 25C36.8874 25.6567 36.7551 26.3069 36.4981 26.9136C36.2412 27.5203 35.8645 28.0715 35.3897 28.5358C34.9148 29.0002 34.3511 29.3685 33.7308 29.6198C33.1104 29.8711 32.4455 30 31.774 30L5.17922 30C4.78972 30 4.47397 30.3088 4.47397 30.6897C4.47397 33.0702 6.44741 35 8.88177 35L31.774 35C33.1169 35 34.4466 34.7413 35.6873 34.2388C36.928 33.7363 38.0553 32.9997 39.0048 32.0711C39.9544 31.1425 40.7077 30.0401 41.2216 28.8268C41.7355 27.6136 42 26.3132 42 25C42 23.6868 41.7355 22.3864 41.2216 21.1732C40.7077 19.9599 39.9544 18.8575 39.0049 17.9289C38.0553 17.0003 36.928 16.2637 35.6873 15.7612C34.4466 15.2586 33.1169 15 31.7739 15Z" fill="rgb(135,140,255)" fill-rule="evenodd" />
	<path id="spacetheme" d="M31.7739 15L24.8648 15C24.6465 15 24.4696 15.173 24.4696 15.3864L24.4696 19.6136C24.4696 19.827 24.6465 20 24.8648 20L31.7739 20C32.4454 20 33.1104 20.1289 33.7308 20.3802C34.3511 20.6315 34.9148 20.9998 35.3897 21.4642C35.8645 21.9285 36.2412 22.4797 36.4981 23.0864C36.7551 23.6931 36.8874 24.3433 36.8874 25C36.8874 25.6567 36.7551 26.3069 36.4981 26.9136C36.2412 27.5203 35.8645 28.0715 35.3897 28.5358C34.9148 29.0002 34.3511 29.3685 33.7308 29.6198C33.1104 29.8711 32.4455 30 31.774 30L5.17922 30C4.78972 30 4.47397 30.3088 4.47397 30.6897C4.47397 33.0702 6.44741 35 8.88177 35L31.774 35C33.1169 35 34.4466 34.7413 35.6873 34.2388C36.928 33.7363 38.0553 32.9997 39.0048 32.0711C39.9544 31.1425 40.7077 30.0401 41.2216 28.8268C41.7355 27.6136 42 26.3132 42 25C42 23.6868 41.7355 22.3864 41.2216 21.1732C40.7077 19.9599 39.9544 18.8575 39.0049 17.9289C38.0553 17.0003 36.928 16.2637 35.6873 15.7612C34.4466 15.2586 33.1169 15 31.7739 15Z" fill="rgb(135,140,255)" fill-rule="evenodd" />
	<path id="spacetheme" d="M37.5489 4.31035C37.5489 4.69123 37.2332 5 36.8437 5C32.8291 5.00002 24.6974 5.00004 24.2868 5.00004C23.8761 5.00004 23.5563 5.31254 23.5563 5.71432C23.5563 6.08581 23.5564 25.7685 23.5564 28.7346C23.5564 28.948 23.3795 29.1072 23.1612 29.1072L18.8385 29.1072C18.6203 29.1072 18.4433 28.948 18.4433 28.7346C18.4433 25.7685 18.4434 6.08581 18.4433 5.71432C18.4433 5.31254 18.1237 5.00004 17.7129 5.00004C17.302 5.00004 13.2642 5.00002 11.2967 5C13.7041 4.96942 15.7045 3.05112 15.7045 0.689656C15.7045 0.308769 15.3887 9.21314e-08 14.9992 9.21314e-08L33.1411 9.21314e-08C35.5755 9.21314e-08 37.5489 1.92981 37.5489 4.31035Z" fill="rgb(135,140,255)" fill-rule="evenodd" />
	<path id="spacetheme" d="M37.5489 4.31035C37.5489 4.69123 37.2332 5 36.8437 5C32.8291 5.00002 24.6974 5.00004 24.2868 5.00004C23.8761 5.00004 23.5563 5.31254 23.5563 5.71432C23.5563 6.08581 23.5564 25.7685 23.5564 28.7346C23.5564 28.948 23.3795 29.1072 23.1612 29.1072L18.8385 29.1072C18.6203 29.1072 18.4433 28.948 18.4433 28.7346C18.4433 25.7685 18.4434 6.08581 18.4433 5.71432C18.4433 5.31254 18.1237 5.00004 17.7129 5.00004C17.302 5.00004 13.2642 5.00002 11.2967 5C13.7041 4.96942 15.7045 3.05112 15.7045 0.689656C15.7045 0.308769 15.3887 9.21314e-08 14.9992 9.21314e-08L33.1411 9.21314e-08C35.5755 9.21314e-08 37.5489 1.92981 37.5489 4.31035Z" fill="rgb(102,108.12,255)" fill-rule="evenodd" />
</svg>
