<svg viewBox="0 0 42 42" xmlns="http://www.w3.org/2000/svg" xmlns:xlink="http://www.w3.org/1999/xlink" width="42.000000" height="42.000000" fill="none" customFrame="#000000">
	<path id="spotify" d="M20.9999 0C9.40221 0 0 9.40218 0 21.0001C0 32.5986 9.40221 42 20.9999 42C32.5988 42 42 32.5986 42 21.0001C42 9.40294 32.5988 0.00100308 20.9996 0.00100308L20.9999 0ZM30.6303 30.2882C30.2541 30.9051 29.4467 31.1007 28.8298 30.722C23.8992 27.7103 17.6923 27.0282 10.3825 28.6983C9.67805 28.8588 8.97591 28.4175 8.81542 27.7128C8.65418 27.0081 9.09377 26.306 9.79993 26.1455C17.7994 24.3178 24.6611 25.1048 30.1965 28.4877C30.8133 28.8663 31.0089 29.6713 30.6303 30.2882ZM33.2006 24.5701C32.7267 25.3405 31.7186 25.5837 30.9488 25.1098C25.304 21.6401 16.6995 20.6353 10.0229 22.662C9.15696 22.9235 8.24242 22.4355 7.97962 21.5711C7.71882 20.7052 8.20706 19.7924 9.07145 19.5291C16.698 17.215 26.1792 18.3359 32.6615 22.3194C33.4313 22.7934 33.6746 23.8012 33.2006 24.5701ZM33.4213 18.6158C26.6531 14.5957 15.4865 14.226 9.02456 16.1873C7.98689 16.502 6.88954 15.9162 6.57508 14.8785C6.26062 13.8403 6.8459 12.7437 7.88433 12.4282C15.3022 10.1763 27.6336 10.6114 35.4259 15.2374C36.3613 15.7913 36.6672 16.9968 36.113 17.9289C35.5613 18.8623 34.3526 19.17 33.4223 18.6158L33.4213 18.6158Z" fill="rgb(102,108.12,255)" fill-rule="nonzero" />
</svg>
