<svg viewBox="0 0 42 42" xmlns="http://www.w3.org/2000/svg" xmlns:xlink="http://www.w3.org/1999/xlink" width="42.000000" height="42.000000" fill="none" customFrame="#000000">
	<path id="steam" d="M0 19.3038C0.872493 8.49607 9.92836 0 20.9699 0C32.5831 0 42 9.39671 42 21.015C42 32.6033 32.5831 42 20.9699 42C11.3424 42 3.2192 35.5454 0.722063 26.7191L8.7851 30.0515C9.32665 32.7834 11.7335 34.8249 14.6218 34.8249C17.9011 34.8249 20.5788 32.153 20.5788 28.8806L20.5788 28.6104L27.7393 23.5068L27.9198 23.5068C32.3123 23.5068 35.8625 19.9643 35.8625 15.5811C35.8625 11.198 32.2822 7.65547 27.9198 7.65547C23.5272 7.65547 19.9771 11.228 19.9771 15.5811L19.9771 15.6712L14.9527 22.9364L14.6218 22.9364C13.3883 22.9364 12.245 23.2966 11.2822 23.9571L0 19.3038ZM27.8896 10.2973C30.8079 10.2973 33.1847 12.669 33.1847 15.5811C33.1847 18.4931 30.8079 20.8648 27.8896 20.8648C24.9712 20.8648 22.5945 18.4931 22.5945 15.5811C22.5945 12.669 24.9712 10.2973 27.8896 10.2973ZM27.9197 11.6182C25.7234 11.6182 23.9483 13.3895 23.9483 15.5811C23.9483 17.7726 25.7234 19.5439 27.9197 19.5439C30.1159 19.5439 31.891 17.7726 31.891 15.5811C31.891 13.3895 30.1159 11.6182 27.9197 11.6182ZM13.1774 31.8527L10.59 30.8019C11.0413 31.7626 11.8536 32.5432 12.9066 32.9935C15.1931 33.9242 17.8106 32.8734 18.7433 30.5918C19.1946 29.481 19.1946 28.2801 18.7433 27.1693C18.292 26.0585 17.4195 25.2179 16.3364 24.7376C15.2533 24.2873 14.08 24.2873 13.057 24.6776L15.7347 25.7884C17.4195 26.4788 18.2017 28.4002 17.5098 30.0814C16.7877 31.7626 14.8622 32.5732 13.1774 31.8527Z" fill="rgb(102,108.12,255)" fill-rule="evenodd" />
</svg>
