<svg viewBox="0 0 42 42" xmlns="http://www.w3.org/2000/svg" xmlns:xlink="http://www.w3.org/1999/xlink" width="42.000000" height="42.000000" fill="none" customFrame="#000000">
	<path id="zen" d="M21 42C32.598 42 42 32.598 42 21C42 9.402 32.598 0 21 0C9.40203 0 0 9.402 0 21C0 32.598 9.40203 42 21 42ZM38.2308 21C38.2308 30.5163 30.5163 38.2308 21 38.2308C11.4837 38.2308 3.76924 30.5163 3.76924 21C3.76924 11.4837 11.4837 3.76921 21 3.76921C30.5163 3.76921 38.2308 11.4837 38.2308 21ZM35 21C35 28.732 28.732 35 21 35C13.268 35 7.00002 28.732 7.00002 21C7.00002 13.268 13.268 7.00002 21 7.00002C28.732 7.00002 35 13.268 35 21ZM21 32.3077C27.2451 32.3077 32.3077 27.2451 32.3077 21C32.3077 14.7549 27.2451 9.69231 21 9.69231C14.7549 9.69231 9.69228 14.7549 9.69228 21C9.69228 27.2451 14.7549 32.3077 21 32.3077ZM29.0769 21C29.0769 25.4608 25.4608 29.0769 21 29.0769C16.5393 29.0769 12.9231 25.4608 12.9231 21C12.9231 16.5392 16.5393 12.9231 21 12.9231C25.4608 12.9231 29.0769 16.5392 29.0769 21ZM21 27.4616C24.5686 27.4616 27.4616 24.5686 27.4616 21C27.4616 17.4314 24.5686 14.5384 21 14.5384C17.4314 14.5384 14.5384 17.4314 14.5384 21C14.5384 24.5686 17.4314 27.4616 21 27.4616Z" fill="rgb(102,108.12,255)" fill-rule="evenodd" />
</svg>
