<svg width="158" height="24" viewBox="0 0 158 24" fill="none" xmlns="http://www.w3.org/2000/svg">
<path d="M6.992 19.24C5.936 19.24 5.024 19.104 4.256 18.832C3.504 18.56 2.88 18.216 2.384 17.8C1.888 17.368 1.488 16.912 1.184 16.432C0.896 15.952 0.68 15.504 0.536 15.088C0.392 14.656 0.296 14.304 0.248 14.032C0.2 13.76 0.176 13.624 0.176 13.624H3.032C3.032 13.624 3.056 13.736 3.104 13.96C3.152 14.168 3.248 14.432 3.392 14.752C3.536 15.056 3.752 15.368 4.04 15.688C4.344 15.992 4.736 16.256 5.216 16.48C5.712 16.688 6.336 16.792 7.088 16.792C8.208 16.792 9.08 16.528 9.704 16C10.344 15.472 10.664 14.8 10.664 13.984C10.664 13.28 10.424 12.736 9.944 12.352C9.48 11.952 8.792 11.648 7.88 11.44L5.528 10.888C4.648 10.696 3.832 10.416 3.08 10.048C2.344 9.664 1.744 9.152 1.28 8.512C0.832 7.872 0.608 7.064 0.608 6.088C0.608 5.032 0.864 4.128 1.376 3.376C1.904 2.608 2.624 2.024 3.536 1.624C4.464 1.208 5.52 0.999999 6.704 0.999999C7.856 0.999999 8.808 1.176 9.56 1.528C10.312 1.864 10.912 2.28 11.36 2.776C11.808 3.272 12.136 3.776 12.344 4.288C12.568 4.784 12.712 5.208 12.776 5.56C12.84 5.896 12.872 6.064 12.872 6.064H10.136C10.136 6.064 10.104 5.936 10.04 5.68C9.976 5.408 9.824 5.096 9.584 4.744C9.36 4.392 9.008 4.088 8.528 3.832C8.064 3.56 7.432 3.424 6.632 3.424C5.528 3.424 4.704 3.68 4.16 4.192C3.616 4.704 3.344 5.272 3.344 5.896C3.344 6.504 3.576 6.992 4.04 7.36C4.504 7.712 5.128 7.976 5.912 8.152L8.432 8.752C9.36 8.96 10.2 9.272 10.952 9.688C11.72 10.104 12.328 10.656 12.776 11.344C13.224 12.016 13.448 12.84 13.448 13.816C13.448 14.808 13.2 15.72 12.704 16.552C12.224 17.368 11.504 18.024 10.544 18.52C9.584 19 8.4 19.24 6.992 19.24ZM16.2928 23.704V6.28H19.0288V8.176H19.1728C19.3328 7.936 19.5648 7.648 19.8688 7.312C20.1888 6.976 20.6128 6.68 21.1408 6.424C21.6848 6.168 22.3648 6.04 23.1808 6.04C24.1248 6.04 24.9568 6.232 25.6768 6.616C26.3968 6.984 26.9888 7.488 27.4528 8.128C27.9328 8.752 28.2848 9.456 28.5088 10.24C28.7488 11.024 28.8688 11.824 28.8688 12.64C28.8688 13.456 28.7488 14.256 28.5088 15.04C28.2848 15.824 27.9328 16.536 27.4528 17.176C26.9888 17.8 26.3968 18.304 25.6768 18.688C24.9568 19.056 24.1248 19.24 23.1808 19.24C22.3648 19.24 21.6848 19.112 21.1408 18.856C20.6128 18.6 20.1888 18.304 19.8688 17.968C19.5648 17.632 19.3328 17.344 19.1728 17.104H19.0288V23.704H16.2928ZM19.0288 12.64C19.0288 13.36 19.1568 14.048 19.4128 14.704C19.6848 15.36 20.0768 15.904 20.5888 16.336C21.1168 16.752 21.7728 16.96 22.5568 16.96C23.3568 16.96 24.0128 16.752 24.5248 16.336C25.0528 15.904 25.4448 15.36 25.7008 14.704C25.9728 14.048 26.1088 13.36 26.1088 12.64C26.1088 11.92 25.9728 11.232 25.7008 10.576C25.4448 9.92 25.0528 9.384 24.5248 8.968C24.0128 8.536 23.3568 8.32 22.5568 8.32C21.7728 8.32 21.1168 8.536 20.5888 8.968C20.0768 9.384 19.6848 9.92 19.4128 10.576C19.1568 11.232 19.0288 11.92 19.0288 12.64ZM37.205 6.04C38.005 6.04 38.669 6.168 39.197 6.424C39.741 6.68 40.173 6.976 40.493 7.312C40.813 7.648 41.045 7.936 41.189 8.176H41.333V6.28H44.069V19H41.333V17.104H41.189C41.045 17.344 40.813 17.632 40.493 17.968C40.173 18.304 39.741 18.6 39.197 18.856C38.669 19.112 38.005 19.24 37.205 19.24C36.245 19.24 35.405 19.056 34.685 18.688C33.981 18.304 33.389 17.8 32.909 17.176C32.429 16.536 32.069 15.824 31.829 15.04C31.605 14.256 31.493 13.456 31.493 12.64C31.493 11.824 31.605 11.024 31.829 10.24C32.069 9.456 32.429 8.752 32.909 8.128C33.389 7.488 33.981 6.984 34.685 6.616C35.405 6.232 36.245 6.04 37.205 6.04ZM37.805 8.32C37.021 8.32 36.365 8.536 35.837 8.968C35.309 9.384 34.909 9.92 34.637 10.576C34.381 11.232 34.253 11.92 34.253 12.64C34.253 13.36 34.381 14.048 34.637 14.704C34.909 15.36 35.309 15.904 35.837 16.336C36.365 16.752 37.021 16.96 37.805 16.96C38.589 16.96 39.237 16.752 39.749 16.336C40.277 15.904 40.669 15.36 40.925 14.704C41.197 14.048 41.333 13.36 41.333 12.64C41.333 11.92 41.197 11.232 40.925 10.576C40.669 9.92 40.277 9.384 39.749 8.968C39.237 8.536 38.589 8.32 37.805 8.32ZM53.4629 19.24C52.3909 19.24 51.4549 19.056 50.6549 18.688C49.8549 18.304 49.1909 17.8 48.6629 17.176C48.1349 16.536 47.7349 15.824 47.4629 15.04C47.2069 14.256 47.0789 13.456 47.0789 12.64C47.0789 11.824 47.2069 11.024 47.4629 10.24C47.7349 9.456 48.1349 8.752 48.6629 8.128C49.1909 7.488 49.8549 6.984 50.6549 6.616C51.4549 6.232 52.3909 6.04 53.4629 6.04C54.5189 6.04 55.3909 6.2 56.0789 6.52C56.7829 6.824 57.3429 7.208 57.7589 7.672C58.1749 8.136 58.4869 8.6 58.6949 9.064C58.9029 9.528 59.0309 9.92 59.0789 10.24C59.1429 10.56 59.1749 10.72 59.1749 10.72H56.5829C56.5829 10.72 56.5429 10.6 56.4629 10.36C56.3989 10.12 56.2629 9.84 56.0549 9.52C55.8469 9.2 55.5349 8.92 55.1189 8.68C54.7189 8.44 54.1749 8.32 53.4869 8.32C52.6709 8.32 51.9909 8.528 51.4469 8.944C50.9029 9.344 50.4869 9.872 50.1989 10.528C49.9269 11.184 49.7909 11.888 49.7909 12.64C49.7909 13.392 49.9269 14.096 50.1989 14.752C50.4869 15.408 50.9029 15.944 51.4469 16.36C51.9909 16.76 52.6709 16.96 53.4869 16.96C54.1749 16.96 54.7189 16.84 55.1189 16.6C55.5349 16.36 55.8469 16.08 56.0549 15.76C56.2629 15.44 56.3989 15.16 56.4629 14.92C56.5429 14.68 56.5829 14.56 56.5829 14.56H59.1749C59.1749 14.56 59.1429 14.72 59.0789 15.04C59.0309 15.36 58.9029 15.752 58.6949 16.216C58.4869 16.68 58.1749 17.144 57.7589 17.608C57.3429 18.072 56.7829 18.464 56.0789 18.784C55.3909 19.088 54.5189 19.24 53.4629 19.24ZM68.06 19.24C66.988 19.24 66.06 19.056 65.276 18.688C64.508 18.304 63.868 17.8 63.356 17.176C62.86 16.536 62.484 15.824 62.228 15.04C61.988 14.256 61.868 13.456 61.868 12.64C61.868 11.84 61.988 11.048 62.228 10.264C62.468 9.48 62.836 8.768 63.332 8.128C63.828 7.488 64.46 6.984 65.228 6.616C65.996 6.232 66.9 6.04 67.94 6.04C69.06 6.04 70.044 6.296 70.892 6.808C71.756 7.304 72.428 8.048 72.908 9.04C73.404 10.016 73.652 11.232 73.652 12.688V13.432H64.628C64.692 14.408 65.02 15.248 65.612 15.952C66.204 16.656 67.02 17.008 68.06 17.008C68.652 17.008 69.14 16.912 69.524 16.72C69.908 16.512 70.204 16.28 70.412 16.024C70.62 15.768 70.764 15.544 70.844 15.352C70.94 15.16 70.988 15.064 70.988 15.064H73.532C73.532 15.064 73.492 15.208 73.412 15.496C73.332 15.768 73.18 16.112 72.956 16.528C72.748 16.944 72.444 17.36 72.044 17.776C71.644 18.192 71.116 18.544 70.46 18.832C69.804 19.104 69.004 19.24 68.06 19.24ZM64.652 11.512H71.012C70.948 10.392 70.612 9.568 70.004 9.04C69.412 8.512 68.716 8.248 67.916 8.248C67.02 8.248 66.276 8.544 65.684 9.136C65.092 9.712 64.748 10.504 64.652 11.512Z" fill="#878CFF"/>
<path d="M81.2473 19V5.224H75.8713V1.24H91.2313V5.224H85.8553V19H81.2473ZM93.5103 19V0.759999H98.0703V8.08H98.1903C98.3663 7.792 98.5903 7.496 98.8623 7.192C99.1503 6.872 99.5263 6.6 99.9903 6.376C100.454 6.152 101.038 6.04 101.742 6.04C102.782 6.04 103.598 6.28 104.19 6.76C104.798 7.224 105.23 7.816 105.486 8.536C105.742 9.24 105.87 9.952 105.87 10.672V19H101.31V11.584C101.31 11.12 101.19 10.696 100.95 10.312C100.71 9.912 100.294 9.712 99.7023 9.712C99.0783 9.712 98.6463 9.912 98.4063 10.312C98.1823 10.712 98.0703 11.136 98.0703 11.584V19H93.5103ZM114.732 19.24C113.564 19.24 112.548 19.056 111.684 18.688C110.836 18.32 110.132 17.824 109.572 17.2C109.012 16.56 108.596 15.848 108.324 15.064C108.052 14.264 107.916 13.448 107.916 12.616C107.916 11.816 108.044 11.024 108.3 10.24C108.572 9.456 108.98 8.752 109.524 8.128C110.068 7.488 110.756 6.984 111.588 6.616C112.436 6.232 113.436 6.04 114.588 6.04C115.836 6.04 116.932 6.304 117.876 6.832C118.82 7.36 119.556 8.128 120.084 9.136C120.612 10.128 120.876 11.336 120.876 12.76V13.792H112.5C112.548 14.336 112.756 14.816 113.124 15.232C113.508 15.648 114.044 15.856 114.732 15.856C115.26 15.856 115.66 15.768 115.932 15.592C116.204 15.4 116.388 15.216 116.484 15.04C116.58 14.848 116.628 14.752 116.628 14.752H120.804C120.804 14.752 120.764 14.904 120.684 15.208C120.604 15.512 120.452 15.888 120.228 16.336C120.004 16.768 119.668 17.208 119.22 17.656C118.772 18.104 118.18 18.48 117.444 18.784C116.724 19.088 115.82 19.24 114.732 19.24ZM112.476 11.272H116.532C116.516 10.616 116.324 10.128 115.956 9.808C115.588 9.472 115.1 9.304 114.492 9.304C113.98 9.304 113.524 9.464 113.124 9.784C112.74 10.104 112.524 10.6 112.476 11.272ZM122.919 19V6.28H127.479V7.936H127.623C127.943 7.392 128.383 6.944 128.943 6.592C129.503 6.224 130.207 6.04 131.055 6.04C132.015 6.04 132.767 6.264 133.311 6.712C133.855 7.144 134.247 7.656 134.487 8.248H134.559C134.751 7.944 135.015 7.624 135.351 7.288C135.687 6.936 136.111 6.64 136.623 6.4C137.135 6.16 137.743 6.04 138.447 6.04C139.311 6.04 140.007 6.232 140.535 6.616C141.063 7 141.447 7.48 141.687 8.056C141.943 8.616 142.071 9.184 142.071 9.76V19H137.511V11.224C137.511 10.808 137.399 10.456 137.175 10.168C136.951 9.864 136.599 9.712 136.119 9.712C135.655 9.712 135.311 9.864 135.087 10.168C134.879 10.456 134.775 10.808 134.775 11.224V19H130.215V11.224C130.215 10.808 130.103 10.456 129.879 10.168C129.655 9.864 129.303 9.712 128.823 9.712C128.359 9.712 128.015 9.864 127.791 10.168C127.583 10.456 127.479 10.808 127.479 11.224V19H122.919ZM150.943 19.24C149.775 19.24 148.759 19.056 147.895 18.688C147.047 18.32 146.343 17.824 145.783 17.2C145.223 16.56 144.807 15.848 144.535 15.064C144.263 14.264 144.127 13.448 144.127 12.616C144.127 11.816 144.255 11.024 144.511 10.24C144.783 9.456 145.191 8.752 145.735 8.128C146.279 7.488 146.967 6.984 147.799 6.616C148.647 6.232 149.647 6.04 150.799 6.04C152.047 6.04 153.143 6.304 154.087 6.832C155.031 7.36 155.767 8.128 156.295 9.136C156.823 10.128 157.087 11.336 157.087 12.76V13.792H148.711C148.759 14.336 148.967 14.816 149.335 15.232C149.719 15.648 150.255 15.856 150.943 15.856C151.471 15.856 151.871 15.768 152.143 15.592C152.415 15.4 152.599 15.216 152.695 15.04C152.791 14.848 152.839 14.752 152.839 14.752H157.015C157.015 14.752 156.975 14.904 156.895 15.208C156.815 15.512 156.663 15.888 156.439 16.336C156.215 16.768 155.879 17.208 155.431 17.656C154.983 18.104 154.391 18.48 153.655 18.784C152.935 19.088 152.031 19.24 150.943 19.24ZM148.687 11.272H152.743C152.727 10.616 152.535 10.128 152.167 9.808C151.799 9.472 151.311 9.304 150.703 9.304C150.191 9.304 149.735 9.464 149.335 9.784C148.951 10.104 148.735 10.6 148.687 11.272Z" fill="#666CFF"/>
</svg>
