<svg width="24" height="24" version="1.1" viewBox="0 0 24 24" xmlns="http://www.w3.org/2000/svg">
 <path d="m11.9 2.32c-0.425 0.0664-0.734 0.51-1.02 0.796l-5.04 5.04c-0.146 0.146-0.313 0.292-0.407 0.48-0.0911 0.183-0.0727 0.382-0.0727 0.58v5.55c0 0.209-0.0197 0.419 0.0831 0.61 0.0875 0.162 0.228 0.291 0.357 0.42l5.08 5.08c0.342 0.342 0.703 0.878 1.25 0.807 0.416-0.0541 0.723-0.5 1-0.777l5.07-5.07c0.146-0.146 0.314-0.292 0.407-0.48 0.0911-0.183 0.0727-0.382 0.0727-0.58v-5.55c0-0.209 0.0197-0.419-0.0831-0.61-0.0874-0.162-0.228-0.291-0.357-0.42l-5.08-5.08c-0.34-0.34-0.713-0.881-1.26-0.796m0.12 1.81c0.0559 0 0.133 0.111 0.17 0.148l4.73 4.73c0.0762 0.0762 0.201 0.163 0.25 0.26 0.0461 0.0921 0.0103 0.278 0.0103 0.38v4.74c0 0.0927 0.0315 0.256-0.0103 0.34-0.0484 0.0968-0.174 0.184-0.25 0.26l-4.73 4.73c-0.0368 0.0368-0.114 0.148-0.17 0.148s-0.133-0.111-0.17-0.148l-4.73-4.73c-0.0762-0.0762-0.201-0.163-0.25-0.26-0.0418-0.0836-0.0103-0.247-0.0103-0.34v-4.75c0-0.1-0.0347-0.28 0.0103-0.37 0.0484-0.0968 0.174-0.184 0.25-0.26l4.73-4.73c0.0368-0.0368 0.114-0.148 0.17-0.148m-0.09 2.89c-0.319 0.0457-0.513 0.269-0.73 0.486-0.318 0.318-0.639 0.635-0.95 0.96-0.352 0.368-0.723 0.717-1.07 1.09-0.146 0.157-0.336 0.291-0.426 0.49-0.132 0.291-0.0631 0.642-0.0631 0.95v1.96c0 0.313-0.0707 0.722 0.0727 1.01 0.0917 0.184 0.267 0.314 0.407 0.46 0.277 0.29 0.557 0.577 0.84 0.86 0.412 0.412 0.818 0.828 1.23 1.24 0.24 0.24 0.489 0.493 0.86 0.447 0.319-0.0391 0.515-0.262 0.73-0.477 0.312-0.312 0.622-0.625 0.93-0.94 0.356-0.365 0.718-0.722 1.07-1.09 0.156-0.163 0.361-0.31 0.456-0.52 0.124-0.274 0.0631-0.645 0.0631-0.94v-1.97c0-0.324 0.0778-0.708-0.0727-1.01-0.0917-0.184-0.267-0.314-0.407-0.46-0.277-0.289-0.557-0.577-0.84-0.86-0.412-0.412-0.818-0.828-1.23-1.24-0.241-0.241-0.496-0.499-0.87-0.446m0.09 1.82c0.0732 0 0.2 0.178 0.25 0.228 0.235 0.235 0.465 0.475 0.7 0.71 0.198 0.198 0.392 0.401 0.59 0.6 0.0905 0.0905 0.232 0.194 0.29 0.31 0.0244 0.0488 0.0103 0.127 0.0103 0.18 0 0.15-0.01 0.3-0.01 0.45v1.82c0 0.054 0.0136 0.13-0.0101 0.18-0.056 0.118-0.199 0.219-0.29 0.31-0.202 0.202-0.398 0.408-0.6 0.61-0.228 0.228-0.452 0.462-0.68 0.69-0.05 0.05-0.177 0.228-0.25 0.228s-0.2-0.178-0.25-0.228c-0.228-0.228-0.452-0.462-0.68-0.69-0.202-0.202-0.398-0.408-0.6-0.61-0.0909-0.0909-0.232-0.194-0.29-0.31-0.0233-0.0466-0.0103-0.119-0.0103-0.17v-1.83c0-0.15-0.01-0.3-0.01-0.45 0-0.0533-0.0141-0.131 0.0103-0.18 0.0577-0.116 0.199-0.22 0.29-0.31 0.198-0.198 0.392-0.402 0.59-0.6 0.235-0.235 0.465-0.475 0.7-0.71 0.05-0.05 0.177-0.228 0.25-0.228z" fill="#010101"/>
</svg>
