<?xml version="1.0" encoding="UTF-8" standalone="no"?>
<svg
   width="24"
   height="24"
   version="1.1"
   viewBox="0 0 24 24"
   id="svg4"
   sodipodi:docname="deafen with line.svg"
   inkscape:version="1.1.1 (3bf5ae0d25, 2021-09-20)"
   xmlns:inkscape="http://www.inkscape.org/namespaces/inkscape"
   xmlns:sodipodi="http://sodipodi.sourceforge.net/DTD/sodipodi-0.dtd"
   xmlns="http://www.w3.org/2000/svg"
   xmlns:svg="http://www.w3.org/2000/svg">
  <defs
     id="defs8" />
  <sodipodi:namedview
     id="namedview6"
     pagecolor="#505050"
     bordercolor="#eeeeee"
     borderopacity="1"
     inkscape:pageshadow="0"
     inkscape:pageopacity="0"
     inkscape:pagecheckerboard="0"
     showgrid="false"
     inkscape:zoom="18.166667"
     inkscape:cx="9.3302752"
     inkscape:cy="12.357798"
     inkscape:window-width="1920"
     inkscape:window-height="1057"
     inkscape:window-x="-8"
     inkscape:window-y="-8"
     inkscape:window-maximized="1"
     inkscape:current-layer="svg4" />
  <path
     d="m6.7 3.52c0.0756 0.107 0.187 0.197 0.28 0.29l0.52 0.52c0.0682 0.0682 0.194 0.253 0.29 0.272 0.0405 0.0081 0.0964-0.037 0.13-0.056 0.095-0.0536 0.192-0.105 0.29-0.153 0.35-0.175 0.717-0.331 1.09-0.451 1.13-0.361 2.31-0.514 3.49-0.4 1.05 0.101 2.09 0.387 3.03 0.871 2.44 1.26 4.23 3.67 4.59 6.41 0.104 0.79 0.0872 1.58 0.0872 2.38v0.59c0 0.0493 0.0214 0.167-0.016 0.204-0.0386 0.0385-0.163 0.016-0.214 0.016h-3.08l0.37 0.38 1 1 0.13 0.107 0.42 0.0032h1.25l0.124 0.016 0.016 0.124v1.25l0.0032 0.42 0.107 0.13 1 1 0.38 0.37v-5.17c0-0.726 0.0387-1.47-0.0109-2.19-0.0665-0.971-0.245-1.93-0.58-2.85-0.391-1.07-0.961-2.07-1.68-2.95-0.589-0.718-1.28-1.35-2.05-1.88-2.3-1.59-5.24-2.15-7.96-1.5-1.07 0.253-2.08 0.678-3.01 1.25m-2.29 1.97c-0.394 0.411-0.729 0.919-1.01 1.41-0.601 1.04-1.03 2.15-1.24 3.33-0.175 0.971-0.154 1.95-0.154 2.93v5.28c0 0.387-0.0219 0.778 0.0545 1.16 0.14 0.701 0.536 1.35 1.11 1.78 0.475 0.362 1.03 0.561 1.62 0.617 0.288 0.0274 0.591 0.0017 0.88 0.0017h1.54c0.551 0 1.22 0.116 1.59-0.39 0.202-0.272 0.198-0.567 0.198-0.89v-5.42c0-0.214 0.0195-0.436-0.0581-0.64-0.136-0.357-0.454-0.601-0.832-0.647-0.343-0.0421-0.714-0.0029-1.06-0.0029h-3.21c-0.0703 0-0.324 0.0386-0.339-0.0502-0.0221-0.136-0.00148-0.292-0.00148-0.43v-0.88c0-0.491-5e-3 -0.981 0.0417-1.47 0.0798-0.836 0.288-1.67 0.613-2.44 0.239-0.569 0.54-1.1 0.889-1.61 0.099-0.144 0.206-0.283 0.315-0.42 0.0299-0.0375 0.114-0.109 0.111-0.16-0.00246-0.0356-0.0457-0.0668-0.0688-0.09l-0.7-0.7c-0.0896-0.0896-0.176-0.197-0.28-0.27m-0.897 10c0.0599-0.0294 0.181-6e-3 0.247-6e-3h3.5c0.0481 0 0.198-0.0246 0.23 0.016 0.0269 0.034 0.0103 0.123 0.0103 0.164v4.66c0 0.0386 0.0187 0.143-0.0232 0.164-0.0857 0.0422-0.271 6e-3 -0.367 6e-3h-1.8c-0.213 0-0.43 0.0088-0.64-0.0366-0.152-0.0329-0.295-0.091-0.43-0.166-0.101-0.0565-0.195-0.129-0.28-0.208-0.439-0.409-0.47-0.94-0.47-1.5v-2.96c0-0.0347-0.0151-0.115 0.0232-0.134m11.5 0.564v4.69c0 0.259-0.0091 0.507 0.124 0.74 0.334 0.584 0.97 0.5 1.55 0.5h1.75c0.401 0 0.805 0.0218 1.2-0.06 0.322-0.0668 0.592-0.212 0.89-0.34-0.0482-0.103-0.17-0.19-0.25-0.27-0.186-0.186-0.382-0.365-0.558-0.56-0.0773-0.0855-0.2-0.268-0.312-0.304-0.0433-0.014-0.106 0.0126-0.15 0.0194-0.0996 0.0154-0.199 0.0242-0.3 0.0242h-2.14c-0.0642 0-0.247 0.0312-0.294-0.016-0.0362-0.0363-0.016-0.146-0.016-0.194v-2.01c0-0.228 0.0335-0.485-0.0015-0.71-0.0085-0.0545-0.0617-0.0932-0.0985-0.13l-1-1c-0.125-0.125-0.246-0.278-0.39-0.38z"
     fill="#212121"
     id="path2" />
  <path
     d="M 0.70159781,0.23390079 C 0.05660986,0.33552489 -0.21541424,1.1372262 0.19347731,1.629949 0.54933271,2.0576598 0.99244121,2.4340454 1.3859353,2.8275393 L 21.573889,23.015493 c 0.432843,0.432843 0.964915,1.248915 1.676626,1.036771 0.605639,-0.179639 0.797253,-0.956362 0.374675,-1.413157 -1.307085,-1.409735 -2.720241,-2.737349 -4.088916,-4.088916 L 2.0856703,1.0995876 C 1.6767787,0.69069599 1.2216943,-0.0056172 0.56301941,0.0970334 Z"
     fill="#212121"
     id="path10"
     style="stroke-width:1.71084" />
</svg>
