<?xml version="1.0" encoding="UTF-8" standalone="no"?>
<svg
   width="24"
   height="24"
   viewBox="0 0 24 24"
   fill="none"
   version="1.1"
   id="svg11"
   sodipodi:docname="ic_fluent_mic_off_24_regular.svg"
   inkscape:version="1.1.1 (3bf5ae0d25, 2021-09-20)"
   xmlns:inkscape="http://www.inkscape.org/namespaces/inkscape"
   xmlns:sodipodi="http://sodipodi.sourceforge.net/DTD/sodipodi-0.dtd"
   xmlns="http://www.w3.org/2000/svg"
   xmlns:svg="http://www.w3.org/2000/svg">
  <defs
     id="defs15" />
  <sodipodi:namedview
     id="namedview13"
     pagecolor="#505050"
     bordercolor="#eeeeee"
     borderopacity="1"
     inkscape:pageshadow="0"
     inkscape:pageopacity="0"
     inkscape:pagecheckerboard="0"
     showgrid="false"
     inkscape:zoom="35.375"
     inkscape:cx="12"
     inkscape:cy="12"
     inkscape:window-width="1920"
     inkscape:window-height="1057"
     inkscape:window-x="-8"
     inkscape:window-y="-8"
     inkscape:window-maximized="1"
     inkscape:current-layer="svg11" />
  <path
     d="m 20.719434,2.21968 c 0.29289,-0.2929 0.76777,-0.29291 1.06066,-2e-5 0.2929,0.29289 0.29291,0.76777 2e-5,1.06066 l -5.78034,5.78046 V 12 c 0,2.2091 -1.79086,4 -4,4 -0.8335,0 -1.6074,-0.2549 -2.2481003,-0.691 l -1.1459,1.1459 c 0.8764,0.6563 1.9648003,1.0451 3.1440003,1.0451 h 0.5 l 0.2164,-0.0044 c 2.79915,-0.1135 5.0336,-2.4186 5.0336,-5.2456 v -0.5 l 0.0069,-0.1018 C 17.556284,11.2822 17.870074,11 18.249774,11 c 0.41421,0 0.75,0.3358 0.75,0.75 v 0.5 l -0.0041,0.2363 c -0.11877,3.4517 -2.82917,6.2453 -6.24594,6.4955 V 21.25 l -0.0068,0.1018 c -0.0497,0.366 -0.3635,0.6482 -0.7432,0.6482 -0.4142,0 -0.75,-0.3358 -0.75,-0.75 l -0.001,-2.2683 C 9.8497737,18.8791 8.5692737,18.35 7.5366737,17.5241 l -4.2563,4.2564 c -0.2929,0.2929 -0.7678,0.2929 -1.0607,0 -0.2929,-0.2929 -0.2929,-0.7678 0,-1.0607 z m -9.87586,11.99742 c 0.3457,0.1807 0.739,0.2829 1.1562,0.2829 1.3807,0 2.5,-1.1193 2.5,-2.5 V 10.5608 Z M 9.4997737,6 v 5.3182 l -1.4301,1.4301 c -0.0459,-0.2424 -0.0699,-0.4925 -0.0699,-0.7483 V 6 c 0,-2.20914 1.7909,-4 4.0000003,-4 1.8479,0 3.40308,1.25302 3.86232,2.95575 L 14.499774,6.3181 V 6 c 0,-1.38071 -1.1193,-2.5 -2.5,-2.5 -1.3807,0 -2.5000003,1.11929 -2.5000003,2.5 z m -2.6962,8.0144 -1.1459,1.146 c -0.4217,-0.8813 -0.6579,-1.8683 -0.6579,-2.9104 v -0.5 l 0.0068,-0.1018 c 0.0497,-0.366 0.3635,-0.6482 0.7432,-0.6482 0.4142,0 0.75,0.3358 0.75,0.75 v 0.5 l 0.0044,0.2164 c 0.0219,0.5411 0.1258,1.0612 0.2994,1.548 z"
     fill="#212121"
     id="path9" />
</svg>
