<svg xmlns="http://www.w3.org/2000/svg" width="100" height="100" viewBox="0 0 100 100">
  <defs>
    <style>
      .cls-1 {
        fill-rule: evenodd;
      }
    </style>
  </defs>
  <path id="party_1" data-name="party 1" class="cls-1" d="M41.785,21.775l0.114-.343h0.114V21.2l0.228-.114V20.861h0.114V20.632l0.228-.114,0.228-.686,0.228-.114,0.114-.457,0.228-.114,0.114-.457,0.228-.114V18.346l0.8-1.258h0.228l0.114-.229H46L46.227,17.2h0.114v0.229h0.114v0.343h0.114V18h0.114L46.8,18.689H46.91v0.229h0.114l0.683,2.058,0.342,0.114c0.143-.582.392-0.3,0.569-0.572l0.114-.572h0.114l0.228-.686h0.114V18.917H49.3V18.689h0.114V18.46H49.53V18.232h0.114V17.889h0.114V17.66h0.114l0.228-.686h0.114l0.342-1.029h0.114V15.717h0.114V15.374H50.9V15.145h0.114l0.228-.686h0.114V14.116h0.114V13.888H51.58l0.228-.686h0.114V12.859h0.114V12.63H52.15l0.228-.686h0.114V11.6h0.114V11.373h0.114l0.342-1.029h0.114L53.4,9.658h0.114l0.114-.572h0.114V8.858h0.114L54.2,7.829h0.114l0.114-.457h0.114V7.143h0.114V6.8H54.77a0.96,0.96,0,0,1,.683-0.686V6l1.822,0.114,3.987,0.343,0.114,0.229a0.588,0.588,0,0,1,.342.686h0.114L61.49,8.515H61.376V8.858H61.262V9.086H61.148l-0.228.686H60.806l-0.114.572H60.579l-0.228.686H60.237v0.343H60.123V11.6H60.009l-0.228.686H59.667l-0.342,1.029H59.212v0.229H59.1l-0.114.572H58.87l-0.228.686H58.528v0.343H58.415v0.229H58.3l-0.228.686H57.959V16.4H57.845v0.229H57.731l-0.228.686H57.389V17.66H57.275v0.229H57.162l-0.228.686H56.82v0.343H56.706v0.229H56.592l-0.228.686H56.25v0.343H56.136V20.4H56.023l-0.342,1.029H55.567l-0.228.686H55.225l-0.114.572H55v0.229H54.884l-0.228.686H54.542v0.343H54.428v0.229H54.314c-0.277.524-.275,1.092-0.911,1.257-0.358.326-2.253,0.014-2.847,0-0.224.345-.1,0.051-0.342,0.229l-0.683.8-0.228.114-0.228.686H48.961v1.6c0,1.154-.025,2.448-0.114,3.429l-0.8.686A2.972,2.972,0,0,1,46,32.406l-0.456-.114V32.178H45.316V32.063H45.088V31.949H44.86V31.835H44.632V31.721H44.4V31.606H44.063V31.492a2.167,2.167,0,0,0-1.025-.229,0.894,0.894,0,0,1-.456.229v0.114H42.354l-0.114.229H42.013v0.114H41.785l-0.114.229-0.456.114-0.114.229-0.456.114-0.114.229-0.456.114-0.114.229-0.456.114-0.114.229a3.108,3.108,0,0,1-1.253.343V33.778H37.8V33.664H37.684a1.194,1.194,0,0,1-.114-1.143V32.178h0.114l0.114-.8h0.114V30.92h0.114V30.577H38.14V30.12a7.561,7.561,0,0,0,.683-2.515,4.771,4.771,0,0,1-.8-0.8l-0.342-.114-0.911-1.029A2.9,2.9,0,0,1,36.09,25.2l-0.114-.915H36.09l0.114-.572a9.28,9.28,0,0,1,.911-0.686l1.936-.343V22.576h0.456V22.461h0.456V22.347h0.456V22.233h0.456A9.992,9.992,0,0,1,41.785,21.775Zm8.429-1.715c0.76-.018,2.479-0.115,2.848.229h0.228V20.4l0.8,0.686v0.229h0.228l0.456-1.257h0.114V19.832H55V19.6h0.114V19.26h0.114V19.032h0.114l0.228-.686h0.114V18h0.114V17.774h0.114l0.228-.686H56.25V16.746h0.114V16.517h0.114l0.228-.686H56.82V15.488h0.114V15.259h0.114l0.228-.686h0.114V14.231H57.5V14h0.114l0.228-.686h0.114V12.973h0.114V12.745h0.114l0.228-.686h0.114V11.716h0.114V11.487h0.114l0.228-.686H59.1V10.458h0.114V10.23h0.114l0.228-.686h0.114V9.2h0.114V8.972H59.9L60.465,7.6H59.44a3.133,3.133,0,0,0-1.367-.114l-2.164-.229L55.111,9.2H55l-0.114.457H54.77V10H54.656V10.23H54.542l-0.228.686H54.2v0.343H54.086v0.229H53.972l-0.228.686H53.631v0.343H53.517v0.229H53.4l-0.228.686H53.061v0.343H52.947V14H52.833l-0.228.686H52.492v0.343H52.378v0.229H52.264l-0.228.686H51.922v0.343H51.808v0.229H51.694l-0.228.686H51.353v0.343H51.239v0.229H51.125L50.9,18.46H50.783V18.8H50.669ZM38.937,32.178a2.325,2.325,0,0,0,.8-0.457h0.228l0.114-.229,0.456-.114,0.114-.229,0.456-.114,0.114-.229,0.456-.114,0.114-.229h0.228V30.349l0.456-.114V30.12h0.456V30.006a3.485,3.485,0,0,1,1.708.343v0.114h0.342v0.114l0.456,0.114v0.114l0.683,0.229a3.376,3.376,0,0,0,1.595.686,19.5,19.5,0,0,1,.114-4.458V26.691c0.367-.961,1.687-1.922,2.392-2.629A6.88,6.88,0,0,1,51.467,22.8V22.69H48.277V22.576H47.708c-0.18-.279-0.093-0.074-0.342-0.229V22.233H47.138L46.8,21.775H46.683V21.547l-0.228-.114L46.227,20.4a10.472,10.472,0,0,1-.8-2.058H45.2A23.189,23.189,0,0,1,43.493,21.2l-0.114.457-0.228.114-0.114.457-0.228.114-0.57.686H42.013v0.114H41.785v0.114H41.443v0.114H40.988V23.49H40.532V23.6H40.076v0.114H39.621v0.114H39.165v0.114H38.71v0.114H38.14c-0.229.073-.58,0.248-0.8,0.343v0.229l2.164,1.829c0.17,0.172.269,0.417,0.456,0.572l0.114,1.372C39.711,29.612,39.2,30.873,38.937,32.178ZM57.5,66.015a2.587,2.587,0,0,0,.57,1.372L58.3,68.072h0.114l0.114,0.457h0.114v0.343h0.114V69.1H58.87L59.1,69.787h0.114V70.13h0.114l0.114,0.457h0.114V70.93h0.114l0.114,0.457H59.9V71.73h0.114l0.114,0.457h0.114v0.343h0.114v0.229h0.114V73.1h0.114v0.229h0.114l0.114,0.686H60.92v0.229h0.114v0.343h0.114v0.229h0.114L61.376,75.5H61.49L61.6,76.189a13.212,13.212,0,0,1,.911,2.629l1.936,0.114v0.114h1.367v0.114h1.253v0.114h1.367v0.114l2.62,0.114v0.114h1.367v0.114h1.253v0.114h1.367v0.114c0.267,0.077.792,0.07,1.025,0.114L76.3,80.418h0.114v0.229h0.114L76.753,81.9h0.114l0.114,0.8h0.114v0.343h0.114l0.114,0.8h0.114l0.114,0.8h0.114a1.318,1.318,0,0,1-.456,1.715v0.114H76.867v0.114l-1.936-.114V86.362H73.563V86.248H72.2V86.134H70.944V86.02H69.577V85.905H68.324V85.791H66.957c-0.8-.229-2.01-0.183-2.848-0.343,0.044,1.359.511,3.17,0.114,4.573v0.915H64.11v0.457H64l-0.114.686H63.768l-0.114.457H63.54v0.229l-0.228.114v0.229H63.2l-0.228.343H62.743l-0.114.229c-0.89.549-2.148,0.229-3.417,0.229H7.614V93.793H7.159V93.679H6.931V93.564H6.589l-0.114-.229H6.248l-0.114-.229H5.906V92.993L5.45,92.65V92.421l-0.342-.229V91.964H4.995l-0.114-.457H4.767l-0.114-.915H4.539a4.986,4.986,0,0,1,.228-2.058H4.881l0.114-.457H5.109V87.849l0.228-.114V87.506l0.228-.114V87.163l0.342-.229V86.705l0.228-.114V86.362l0.342-.229V85.905L6.7,85.791V85.562l0.342-.229V85.105l0.228-.114V84.762l0.342-.229V84.3l0.228-.114V83.962l0.342-.229V83.5l0.228-.114V83.162l0.342-.229V82.7H8.867l0.114-.343,0.228-.114V82.019l0.342-.229V81.561l0.228-.114,0.228-.686,0.228-.114V80.418l0.342-.229V79.961l0.228-.114V79.618l0.342-.229V79.161h0.114l0.114-.343L11.6,78.7V78.475l0.342-.229V78.018l0.228-.114V77.675l0.342-.229V77.217L12.74,77.1V76.874l0.342-.229V76.417L13.31,76.3V76.074l0.342-.229V75.617l0.228-.114V75.274l0.342-.229V74.817l0.228-.114V74.474l0.342-.229V74.017l0.228-.114V73.674l0.342-.229V73.216l0.683-.572V72.416l0.228-.114V72.073l0.342-.229V71.616l0.228-.114V71.273l0.342-.229V70.816H17.3l0.114-.343,0.228-.114V70.13L17.98,69.9V69.673l0.228-.114V69.33l0.342-.229V68.873l0.228-.114V68.53l0.342-.229V68.072l0.228-.114V67.729l0.342-.229V67.272l0.228-.114V66.929l0.342-.229V66.472l0.228-.114V66.129l0.342-.229V65.672l0.228-.114V65.329h0.114l0.114-.343,0.228-.114V64.643l0.342-.229V64.186h0.114l0.114-.343,0.228-.114V63.5l0.342-.229V63.043h0.114l0.114-.343,0.228-.114V62.357l0.342-.229V61.9l0.228-.114V61.556l0.342-.229V61.1H24.13l0.114-.343,0.228-.114V60.413l0.342-.229V59.956l0.228-.114V59.613l0.342-.229V59.156H25.5l0.114-.343,0.228-.114V58.47l0.342-.229V58.013h0.114l0.114-.343,0.228-.114V57.327l0.342-.229V56.87l0.228-.114V56.527l0.228-.114,0.114-.343,0.57-.457V55.384l0.228-.114V55.041l0.342-.229V54.583l0.228-.114V54.24l0.342-.229V53.783H29.37l0.114-.343,0.228-.114V53.1l0.342-.229V52.64l0.228-.114V52.3l0.342-.229V51.84l0.228-.114V51.5l0.342-.229V51.04l0.228-.114V50.7l0.342-.229V50.239l0.228-.114V49.9l0.342-.229V49.439l0.228-.114V49.1l0.342-.229V48.639l0.228-.114V48.3l0.342-.229V47.839h0.114L33.7,47.5l0.228-.114V47.153l0.342-.229V46.7l0.228-.114V46.353l0.342-.229,0.228-1.143h0.114V44.752h0.114V44.524l0.228-.114V44.181l0.456-.343,0.114-.229,0.57-.114V43.381h0.228V43.266h0.456V43.152a2.092,2.092,0,0,1,1.025.114h0.569v0.114l0.683,0.114v0.114L40.3,43.838v0.114h0.228v0.114l0.456,0.114L41.1,44.409h0.228v0.114l0.342,0.114,0.114,0.229h0.228L42.127,45.1l0.342,0.114,0.342,0.457h0.228l0.57,0.686h0.228L45.2,47.839,46,48.525v0.229l0.911,0.8v0.229l0.569,0.457v0.229l0.569,0.457v0.229l0.342,0.229,0.57,0.8h0.114l0.57-1.6h0.114V50.239h0.114V50.011h0.114V49.668H50.1l0.114-.457h0.114V48.868h0.114l0.114-.572h0.114V48.067h0.114V47.724H50.9l0.114-.457h0.114V46.924h0.114V46.7h0.114V46.353h0.114L51.58,45.9h0.114V45.553h0.114V45.324h0.114V44.981h0.114V44.752H52.15V44.409h0.114l0.114-.457h0.114V43.609h0.114V43.381h0.114V43.038h0.114l0.114-.457,0.228-.114V42.237l0.342-.114,0.114-.229,0.456-.114V41.666l1.367-.114c1.564-.457,3.712-0.322,5.126-0.914H60.92V40.523h0.114a0.158,0.158,0,0,0,.228.114V40.523c0.342-.228.051-0.1,0.228-0.343l0.683-.572V39.38l0.683-.572V38.579l0.683-.572V37.779l0.683-.572V36.979l0.8-.686V36.065h0.114l0.228-.343,0.342-.229c1.28-1.774,2.822-3.255,4.1-5.03l0.8-.686V29.549l0.683-.572V28.748l0.683-.572V27.948l0.683-.572,0.114-.343h0.228l0.114-.229,1.253-.114v0.114l0.569,0.114v0.114h0.342v0.114h0.342v0.114h0.342v0.114h0.228v0.114h0.342v0.114h0.342V27.72h0.342v0.114H77.55v0.114h0.228v0.114l0.683,0.114v0.114H78.8v0.114h0.228V28.52h0.342v0.114l0.683,0.114v0.114h0.228v0.114h0.342v0.114l0.569,0.457a1.106,1.106,0,0,0,.228.457V30.92a3.887,3.887,0,0,0-.456.8l-0.683.572v0.229l-0.683.572v0.229l-0.683.572v0.229l-0.683.572v0.229l-0.683.572v0.229l-0.683.572v0.229l-0.683.572v0.229l-0.8.686v0.229l-0.683.572v0.229l-0.342.229-0.228.343H74.019v0.229l-0.228.114-0.342.457H73.336v0.229l-0.342.229v0.343a2.491,2.491,0,0,1,.683.915l0.456,0.343v0.229l0.456,0.343v0.229l0.342,0.229v0.229l0.456,0.343V44.3l0.456,0.343v0.229L76.3,45.21v0.229l0.342,0.229V45.9l0.456,0.343,0.114,0.572h0.114a2.545,2.545,0,0,1-.456,1.943V49.1H76.753l-0.114.457H76.525V49.9H76.411v0.229H76.3v0.343H76.183l-0.114.457H75.955v0.343H75.841V51.5H75.728V51.84H75.614v0.229H75.5v0.343H75.386l-0.114.457H75.158l-0.342,1.143H74.7V54.24H74.588v0.343H74.475v0.229H74.361l-0.114.572H74.133v0.343H74.019l-0.114.457H73.791v0.343H73.677v0.229H73.563V57.1H73.449l-0.114.457H73.222V57.9H73.108l-0.114.572H72.88V58.7H72.766v0.343H72.652l-0.114.457H72.424v0.343H72.31V60.07H72.2v0.343H72.083l-0.114.457H71.855v0.343H71.741v0.229H71.627v0.343H71.513v0.229H71.4v0.343H71.285v0.229H71.171l-0.114.572-0.8.914H70.032v0.114H69.8V64.3H69.235v0.114h-0.8v0.114h-0.8v0.114h-0.8v0.114h-0.8c-0.906.264-2.157,0.306-3.075,0.572h-0.8v0.114h-0.8v0.114h-0.8v0.114h-0.8A9.173,9.173,0,0,1,57.5,66.015ZM80.056,30.12a4.1,4.1,0,0,1-1.253-.457H78.461V29.549H78.233V29.434L77.55,29.32V29.206H77.208V29.091H76.98V28.977H76.639V28.863H76.3V28.748H75.955V28.634H75.614V28.52H75.386V28.406H75.044a3.879,3.879,0,0,0-1.367-.457l-0.683.915-0.228.114v0.229l-0.8.686V30.12l-0.683.572V30.92l-0.683.572v0.229l-0.683.572v0.229l-0.683.572v0.229l-0.683.572v0.229l-0.683.572v0.229l-0.683.572v0.229l-0.8.686v0.229l-0.683.572v0.229l-0.342.229-0.228.343H65.021v0.229l-0.683.572v0.229l-0.683.572v0.229l-0.683.572v0.229l-0.683.572-0.114.457-0.683.572-0.114.343-0.57.457v0.229H60.693l-0.228.343-0.456.343v0.229l-0.683.572v0.229l-0.683.572v0.229l-0.228.114V46.01a4.356,4.356,0,0,0-1.025,1.258H57.5a2.006,2.006,0,0,0,.8.343v0.114h0.342v0.114h0.342v0.114h0.228v0.114L59.9,48.182V48.3h0.228V48.41l1.025,0.229v0.114h0.228v0.114l0.683,0.114a8.89,8.89,0,0,0,1.709.686l0.911-1.143,0.342-.229V48.067L65.7,47.5V47.267l0.342-.229,0.228-.343h0.114V46.467l0.683-.572V45.667l0.683-.572V44.867l0.683-.572V44.066l0.683-.572V43.266l0.8-.686V42.352L70.6,41.78V41.552l0.683-.572V40.751l1.253-1.143V39.38l0.683-.572V38.579l0.8-.686V37.665l0.683-.572V36.865l0.683-.572V36.065l0.683-.572V35.264l0.342-.229,0.228-.343h0.114V34.464l0.683-.572V33.664l0.683-.572V32.864l0.683-.572V32.063l0.8-.686V31.149l0.228-.114a3.939,3.939,0,0,1,.342-0.457ZM57.275,42.466V42.58H56.364v0.114H55.453v0.114h-0.8v0.114l-0.456.114-0.114.343H53.972v0.229H53.858v0.343H53.745v0.229H53.631v0.343H53.517l-0.114.457H53.289v0.343H53.175v0.229H53.061V45.9H52.947v0.229H52.833v0.343H52.719l-0.114.457H52.492v0.343H52.378V47.5H52.264v0.343H52.15l-0.114.457H51.922v0.343H51.808v0.229H51.694v0.343H51.58v0.229H51.467v0.343H51.353l-0.114.457H51.125v0.343H51.011v0.229H50.9v0.343H50.783l-0.114.457H50.555v0.343H50.441v0.229H50.328v0.343H50.214l-0.114.8H49.986l-0.114.457H49.758v0.343H49.644v0.229H49.53V54.7H49.416l-0.114.457H49.189V55.5H49.075l-0.114.572H48.847V56.3H48.733v0.343H48.619V56.87H48.505l-0.114.572H48.277l-0.114.572H48.049a1.92,1.92,0,0,0-.114.8,1.436,1.436,0,0,1,.228.343h0.114v0.229l0.456,0.343v0.229L49.189,60.3v0.229l0.456,0.343V61.1l0.342,0.229v0.229L50.441,61.9v0.229L50.9,62.471V62.7l0.342,0.229v0.229L51.694,63.5v0.229l0.456,0.343,0.114,0.343,0.228,0.114v0.229l0.683,0.572a5.444,5.444,0,0,0,1.253-.229h0.8V64.986h0.8V64.872h0.8V64.757h1.367c0.651-.19,1.616-0.264,2.278-0.457l2.392-.229V63.957h0.8V63.843h0.8V63.728h0.8V63.614h0.8V63.5h0.8V63.385h0.8V63.271h0.683V63.157h0.8V63.043l0.57-.114c0.228-.571.559-1.18,0.8-1.715V60.871H70.6V60.642h0.114V60.3H70.83l0.114-.457h0.114V59.5h0.114V59.27h0.114V58.927H71.4l0.114-.457h0.114V58.127h0.114V57.9h0.114V57.555h0.114V57.327h0.114V56.984H72.2l0.114-.457h0.114V56.184h0.114V55.955h0.114V55.612h0.114l0.114-.457h0.114V54.812h0.114V54.583h0.114V54.24h0.114V54.012h0.114V53.669h0.114l0.114-.457h0.114V52.869h0.114V52.64h0.114V52.3h0.114l0.114-.457h0.114l0.114-.572h0.114V50.925H74.7V50.7h0.114V50.354H74.93l0.114-.457h0.114V49.554h0.114V49.325h0.114V48.982H75.5V48.753h0.114l0.114-.572h0.114a2.637,2.637,0,0,0,.228-1.143c-0.343-.227-0.049-0.1-0.228-0.343l-0.456-.343V46.124L75.044,45.9V45.667l-0.456-.343V45.1l-0.456-.343V44.524l-0.456-.343V43.952l-0.342-.229V43.495H73.222l-0.342-.457a0.2,0.2,0,0,0-.114.114,1.493,1.493,0,0,0-.57.686l-0.683.572v0.229l-0.683.572v0.229l-0.8.686v0.229l-0.683.572v0.229l-0.683.572v0.229l-0.683.572v0.229l-0.683.572v0.229l-0.683.572v0.229l-0.683.571v0.229H65.818l-0.456.572H65.135V51.84a1.394,1.394,0,0,0-.342.229l-1.709.114a29.254,29.254,0,0,1-3.3-1.258L59.1,50.811V50.7H58.87V50.582l-2.734-.914-0.683-.8-0.228-.114A1.109,1.109,0,0,0,55,48.3a4.066,4.066,0,0,1,0-1.6V46.124h0.114l0.114-.457,0.456-.343V45.1l0.683-.572V44.3l0.683-.572V43.495l0.228-.114,0.684-.914H57.275ZM37.8,45.781l-0.114.8H37.571v0.8H37.457v1.829h0.114v1.258h0.114v0.914H37.8v0.686h0.114V52.64h0.114v0.686H38.14v0.457h0.114v0.572c0.7,2.143,1.2,4.448,2.05,6.4l0.114,0.686h0.114v0.229h0.114v0.343H40.76v0.343h0.114v0.229h0.114v0.343H41.1v0.229h0.114V63.5h0.114l0.114,0.572h0.114V64.3h0.114v0.343h0.114L41.9,65.1h0.114v0.343h0.114v0.229h0.114l0.114,0.457h0.114v0.343h0.114V66.7H42.7l0.228,0.686h0.114v0.343h0.114l0.228,0.686h0.114v0.229h0.114v0.229h0.114V69.1h0.114V69.33h0.114l0.114,0.457h0.114l0.114,0.457H44.4L44.519,70.7h0.114V70.93h0.114v0.229H44.86v0.229h0.114v0.229h0.114L45.2,72.073l0.228,0.114v0.229h0.114v0.229h0.114v0.229h0.114V73.1h0.114v0.229l0.228,0.114,0.228,0.686,0.228,0.114L46.8,74.931l0.228,0.114L47.138,75.5l0.228,0.114L47.594,76.3l0.228,0.114v0.229l0.228,0.114,0.114,0.457,0.228,0.114,0.114,0.457L48.733,77.9v0.229l0.228,0.114v0.229l0.228,0.114v0.229l0.228,0.114,0.114,0.457h0.114l0.114,0.343,0.228,0.114v0.229L50.328,80.3v0.229l0.228,0.114v0.229h0.114l0.114,0.343,0.228,0.114v0.229l0.342,0.229v0.229l0.228,0.114v0.229l0.228,0.114,0.114,0.343,0.342,0.229v0.229L52.606,83.5v0.229l0.456,0.343,0.114,0.343L53.4,84.533v0.229l0.228,0.114,0.228,0.343h0.114v0.229l0.57,0.457v0.229l1.025,0.915v0.229l1.139,1.029,0.569,0.686H57.5l0.57,0.686H58.3l0.342,0.457H58.87a5,5,0,0,0,2.392,1.257,6.531,6.531,0,0,1,.342-0.8V89.906h0.114V87.849H61.6V86.591a5.666,5.666,0,0,1-.228-1.372l-2.848-.343L58.3,84.533H58.187V84.3H58.073L57.5,81.9H57.389l-0.114-.8H57.162V80.761a3,3,0,0,1-.228-1.829l0.342-.229V78.589H57.5V78.475l1.936,0.114a1.457,1.457,0,0,0,.114-0.572H59.44l-0.114-.686H59.212V76.989H59.1V76.76H58.984l-0.228-1.029H58.642V75.5H58.528l-0.114-.686H58.3V74.588H58.187V74.245H58.073l-0.114-.572H57.845V73.445H57.731V73.1H57.617L57.5,72.645H57.389V72.3H57.275l-0.114-.457H57.048V71.5H56.934V71.273H56.82l-0.114-.457H56.592V70.473H56.478V70.244H56.364V70.016H56.25l-0.228-.686H55.909V68.987H55.795V68.758H55.681V68.53H55.567V68.3H55.453V68.072H55.339V67.844H55.225V67.615H55.111V67.386H55a1.769,1.769,0,0,0-.228-0.572H54.428V66.7a0.942,0.942,0,0,0-.8-0.229v0.114a2.375,2.375,0,0,1-1.025-.229A2.283,2.283,0,0,1,51.353,65.1l-0.342-.229V64.643L50.555,64.3V64.071L50.1,63.728V63.5l-0.228-.114-0.114-.343L49.3,62.7V62.471l-0.456-.343V61.9l-0.342-.229V61.442L48.049,61.1V60.871l-0.456-.343V60.3l-0.456-.343a3.732,3.732,0,0,0-.456-0.8L46.8,57.67H46.91V57.441h0.114V57.1h0.114V56.87h0.114V56.527h0.114L47.708,55.5H47.594l-0.456-1.372L46.8,53.9V53.669l-0.342-.229V53.212L46,52.869V52.64L45.544,52.3V52.068l-0.569-.457V51.383l-0.8-.686V50.468L42.7,49.1l-1.025-1.143H41.443l-0.456-.572H40.76l-0.342-.457H40.19A4.22,4.22,0,0,0,37.8,45.781Zm-4.442,4.458a1.1,1.1,0,0,1-.228.229V50.7l-0.228.114V51.04l-0.228.114v0.229l-0.342.229V51.84l-0.228.114v0.229l-0.342.229V52.64l-0.228.114v0.229l-0.342.229V53.44l-0.228.114v0.229l-0.342.229V54.24l-0.228.114v0.229l-0.342.229v0.229l-0.228.114v0.229l-0.342.229v0.229l-0.228.114v0.229H29.142a0.811,0.811,0,0,0-.114.457,3.481,3.481,0,0,1,.114,1.029h0.114v0.915H29.37v0.8h0.114v0.8c0.218,0.73.346,1.689,0.57,2.4v0.572h0.114l0.228,1.372h0.114l0.114,0.915h0.114l0.114,0.8h0.114v0.343h0.114v0.343h0.114v0.457h0.114v0.343H31.42v0.343h0.114v0.343h0.114v0.343h0.114l0.114,0.686h0.114v0.229H32.1l0.114,0.686h0.114v0.229h0.114V70.93h0.114v0.229h0.114V71.5h0.114V71.73H32.9v0.343h0.114V72.3h0.114v0.343h0.114L33.356,73.1H33.47v0.229h0.114v0.343H33.7V73.9h0.114v0.229h0.114l0.228,0.686h0.114V75.16h0.114L34.5,75.617h0.114l0.114,0.457,0.228,0.114,0.8,1.829,0.228,0.114L36.2,78.818l0.228,0.114,0.114,0.457L36.773,79.5l0.114,0.457,0.228,0.114,0.114,0.457h0.114l0.114,0.343,0.228,0.114L37.8,81.447h0.114l0.114,0.343L38.254,81.9v0.229l0.228,0.114v0.229L38.823,82.7v0.229h0.114l0.114,0.343,0.228,0.114v0.229l0.342,0.229v0.229L39.963,84.3v0.229L40.3,84.762v0.229l0.342,0.229v0.229L41.1,85.791V86.02l0.342,0.229,0.114,0.343,0.683,0.572v0.229l0.683,0.572v0.229L44.4,89.563v0.229l0.683,0.572L45.2,90.592H45.43v0.114l0.342,0.229,0.911,1.029,0.342,0.114L47.48,92.65h8.087V92.535a6.741,6.741,0,0,1-1.481-1.257l-0.228-.343H53.631l-0.114-.229-0.569-.457V90.021l-0.228-.114V89.792l-1.367-1.257V88.306l-0.683-.572V87.506L50.1,87.048V86.82l-0.569-.457-0.114-.343-0.228-.114V85.677l-0.456-.343V85.105l-0.342-.229-0.114-.343-0.228-.114V84.191l-0.228-.114V83.848l-0.342-.229V83.39l-0.228-.114V83.047l-0.342-.229V82.59l-0.228-.114-0.114-.343H46.455V81.9l-0.228-.114V81.561L46,81.447V81.218L45.771,81.1V80.875l-0.228-.114V80.532l-0.228-.114L45.2,79.961H45.088l-0.114-.343L44.746,79.5l-0.114-.457H44.519L44.4,78.7l-0.228-.114V78.361H44.063V78.132l-0.228-.114-0.228-.686-0.228-.114-0.114-.457-0.228-.114L42.81,75.96l-0.228-.114-0.228-.686H42.241V74.931H42.127V74.7L41.9,74.588l-0.114-.457H41.671V73.9H41.557V73.674H41.443V73.445H41.329V73.216H41.215V72.988H41.1l-0.114-.457H40.874l-0.114-.457H40.646l-0.114-.457H40.418V71.387H40.3V71.159H40.19V70.93H40.076V70.7H39.963V70.473H39.849l-0.228-.686H39.507l-0.114-.457H39.279V68.987H39.165V68.758H39.051l-0.228-.686H38.71V67.729H38.6V67.5H38.482l-0.114-.457H38.254V66.7H38.14l-0.114-.457H37.912V65.9H37.8V65.672H37.684V65.329H37.571V65.1H37.457l-0.114-.572H37.229V64.186H37.115V63.957H37V63.614H36.887V63.385H36.773l-0.228-1.029H36.432V62.128H36.318V61.785H36.2V61.442H36.09V61.1H35.976V60.756H35.862V60.413H35.748V60.07H35.634V59.727H35.52V59.384H35.406V59.042H35.293L35.065,57.9H34.951l-0.228-1.258H34.609V56.184H34.5V55.726H34.381V55.155H34.267V54.7H34.154V54.126H34.04V53.554c-0.171-.546-0.292-1.38-0.456-1.943C33.425,51.064,33.677,50.578,33.356,50.239ZM26.864,59.27L26.294,60.3l-0.342.229v0.229l-0.228.114V61.1l-0.342.229v0.229H25.269l-0.114.343-0.228.114v0.229l-0.342.229V62.7H24.472l-0.114.343-0.228.114v0.229l-0.342.229v0.229l-0.228.114v0.229l-0.342.229v0.229l-0.228.114v0.229l-0.228.114v0.229H22.65a0.844,0.844,0,0,0-.228.572,2.546,2.546,0,0,1,.228.915h0.114v0.343h0.114v0.457h0.114v0.343h0.114v0.457h0.114L23.333,69.1h0.114v0.343h0.114v0.343h0.114V70.13h0.114v0.343H23.9v0.343h0.114l0.228,1.029h0.114v0.229h0.114l0.114,0.686a71.916,71.916,0,0,0,4.556,9.374v0.229h0.114V82.59H29.37v0.229h0.114v0.229l0.228,0.114,0.228,0.686,0.228,0.114,0.114,0.457,0.228,0.114v0.229l0.228,0.114,0.114,0.457h0.114l0.114,0.343,0.228,0.114,0.114,0.457h0.114l0.114,0.343,0.228,0.114v0.229h0.114L32.1,87.277l0.228,0.114V87.62l0.342,0.229v0.229L32.9,88.191V88.42l0.228,0.114v0.229l0.342,0.229V89.22l0.342,0.229v0.229l0.342,0.229v0.229L34.5,90.363v0.229l0.228,0.114,0.114,0.343,0.456,0.343v0.229l0.57,0.457,0.114,0.343h7.745V92.307a7.384,7.384,0,0,1-1.253-1.257l-1.253-1.143V89.678l-0.228-.114V89.449l-0.8-.686V88.534l-0.57-.457V87.849l-0.569-.457V87.163l-0.228-.114V86.934L38.6,86.82V86.591l-0.456-.343V86.02L37.8,85.791V85.562l-0.342-.229V85.105l-0.342-.229V84.648l-0.228-.114V84.3l-0.342-.229V83.848l-0.228-.114L36.2,83.39H36.09V83.162l-0.228-.114V82.819L35.634,82.7V82.476l-0.228-.114L35.293,81.9H35.179l-0.114-.343-0.228-.114-0.114-.457L34.5,80.875l-0.114-.457L34.154,80.3l-0.228-.686L33.7,79.5V79.275H33.584V79.046H33.47V78.818H33.356V78.589H33.242V78.361H33.128V78.132L32.9,78.018V77.789H32.787V77.56H32.673V77.332H32.559V77.1H32.445V76.874H32.331V76.646H32.217V76.417H32.1l-0.228-.686H31.762V75.388H31.648V75.16H31.534l-0.228-.686H31.192V74.131H31.078l-0.114-.457H30.85V73.331H30.736l-0.114-.457H30.509V72.531H30.395V72.3H30.281l-0.114-.686H30.053V71.387H29.939L29.825,70.7H29.711V70.473H29.6L29.37,69.444H29.256V69.1H29.142V68.758H29.028V68.415H28.914l-0.228-1.143H28.572l-0.228-1.257H28.231L28,64.643H27.889V64.071H27.775V63.614H27.661V63.043H27.547V62.471c-0.163-.521-0.3-1.291-0.456-1.829A4.128,4.128,0,0,0,26.864,59.27Zm59.57,5.6h1.139v0.114L88.257,65.1l0.114,0.229H88.6l0.114,0.229H88.94L89.054,65.9,89.4,66.129v0.229H89.51l0.114,0.457h0.114v0.343h0.114v0.229h0.114v0.343h0.114v0.229h0.114l0.114,0.686h0.114v0.229h0.114l0.114,0.686h0.114v0.229h0.114l0.114,0.572H91.1l0.114,0.686h0.114v0.229h0.114v0.343H91.56v0.229h0.114l0.114,0.686H91.9v0.229h0.114V73.1h0.114v0.229h0.114l0.114,0.686h0.114l0.114,0.572H92.7v0.229h0.114V75.16h0.114v0.229H93.04l0.114,0.686h0.114V76.3h0.114v0.343H93.5v0.229H93.61l0.114,0.572h0.114l0.114,0.572h0.114l0.114,0.572h0.114v0.343h0.114v0.343h0.114V79.5h0.114v0.343h0.114v0.229h0.114v0.343c0.408,0.928.916,1.444,0.456,2.629a2.606,2.606,0,0,1-1.139.229V83.162H93.724V83.047l-0.57-.114V82.819H92.927V82.7l-0.683-.114V82.476H92.015V82.362H91.674V82.247H91.446V82.133H91.1V82.019H90.876V81.9l-0.57-.114V81.676H89.965V81.561H89.737V81.447H89.4V81.333H89.168V81.218H88.826V81.1H88.6V80.99H88.257c-3.8-1.7-7.931-3.108-11.732-4.8H76.183V76.074H75.955V75.96l-0.683-.114V75.731H75.044V75.617H74.7V75.5H74.475V75.388l-0.57-.114V75.16H73.563V75.045H73.336V74.931H72.994V74.817H72.766V74.7H72.424V74.588H72.2V74.474l-0.57-.114V74.245H71.285V74.131H71.058V74.017H70.716V73.9H70.488V73.788L69.8,73.674c-1.266-.555-2.714-1.163-2.734-2.972h0.114V70.359H67.3V70.244l0.342-.114V70.016l0.8-.114V69.787h0.456V69.673l0.8-.114V69.444L70.6,69.33c2.489-.905,5.368-1.388,7.859-2.286l2.506-.572V66.358l0.911-.114V66.129H82.22V66.015l1.253-.229V65.672l1.253-.229V65.329h0.456V65.214h0.456V65.1l0.8-.114V64.872Zm0.114,1.257v0.114l-0.8.114v0.114H85.3v0.114H84.954V66.7l-1.253.229v0.114l-1.253.229v0.114l-0.911.114c-1.677.608-3.675,1-5.353,1.6l-0.911.114V69.33H74.93v0.114l-1.253.229v0.114l-1.253.229V70.13l-0.911.114v0.114l-3.075.8v0.114c0.13,0.13.045,0,.114,0.229l0.342,0.229v0.114h0.228v0.114L69.8,72.188V72.3h0.342v0.114h0.228v0.114l0.683,0.114v0.114h0.228v0.114h0.342v0.114h0.228V73.1H72.2v0.114h0.228v0.114l0.569,0.114v0.114h0.342v0.114h0.228v0.114h0.342V73.9h0.228v0.114h0.342v0.114H74.7v0.114h0.342V74.36h0.228v0.114l1.823,0.572V75.16h0.228v0.114h0.342v0.114h0.228V75.5h0.342v0.114h0.228v0.114l0.57,0.114V75.96h0.342v0.114H79.6v0.114h0.342V76.3H80.17v0.114h0.342v0.114h0.228v0.114h0.342V76.76h0.228v0.114l0.683,0.114c3.96,1.744,8.151,3.22,12.188,4.916l-0.114-.343H93.952l-0.114-.572H93.724V80.647H93.61V80.418H93.5V80.075H93.382V79.847H93.268l-0.114-.686H93.04l-0.114-.572H92.813V78.361H92.7V78.018H92.585V77.789H92.471V77.446H92.357V77.217H92.243V76.874H92.129V76.646H92.015L91.9,75.96H91.788V75.731H91.674V75.388H91.56V75.16H91.446l-0.114-.572H91.218L91.1,73.9H90.99V73.674H90.876V73.331H90.762V73.1H90.649l-0.114-.686H90.421V72.188H90.307V71.845H90.193V71.616H90.079l-0.114-.686H89.851V70.7H89.737V70.359H89.623V70.13H89.51L89.4,69.444H89.282V69.215H89.168l-0.114-.686H88.94V68.3H88.826V67.958H88.712V67.729H88.6L88.257,66.7H88.143l-0.114-.229-0.342-.114V66.243ZM20.485,68.3l-0.114.343H20.258v0.229l-0.228.114v0.229l-0.342.229v0.229l-0.228.114v0.229l-0.342.229v0.229l-0.228.114v0.229l-0.342.229v0.229l-0.228.114v0.229l-0.342.229v0.229l-0.228.114v0.229l-0.342.229v0.229H17.3a1.308,1.308,0,0,1-.228.343l1.253,4h0.114v0.229h0.114l0.114,0.686h0.114v0.229h0.114V78.7H19v0.229h0.114v0.343h0.114l0.114,0.457H19.46v0.343h0.114l0.114,0.457H19.8v0.229h0.114V81.1H20.03v0.229h0.114v0.229h0.114V81.79h0.114v0.229h0.114v0.229H20.6L20.713,82.7h0.114l0.114,0.457h0.114l0.114,0.457h0.114v0.229H21.4v0.229H21.51V84.3h0.114v0.229h0.114l0.114,0.457,0.228,0.114v0.229h0.114v0.229h0.114v0.229l0.228,0.114,0.228,0.686,0.228,0.114,0.114,0.457,0.228,0.114v0.229l0.228,0.114,0.114,0.457h0.114L23.9,88.42l0.228,0.114v0.229l0.228,0.114v0.229l0.228,0.114v0.229l0.228,0.114v0.229h0.114l0.114,0.343,0.228,0.114v0.229l0.342,0.229v0.229l0.228,0.114v0.229l0.342,0.229v0.229l0.342,0.229v0.229l0.456,0.343V92.65h6.037V92.535c-0.339-.233-0.051-0.1-0.228-0.343l-0.456-.343V91.621l-0.342-.229V91.164l-0.342-.229V90.706l-0.342-.229V90.249l-0.342-.229V89.792l-0.228-.114V89.449l-0.342-.229V88.992l-0.228-.114-0.114-.343H29.939V88.306l-0.228-.114V87.963l-0.228-.114V87.62l-0.228-.114V87.277l-0.228-.114-0.114-.457H28.8l-0.114-.343-0.228-.114-0.114-.457-0.228-.114L28,85.219l-0.228-.114-0.114-.457-0.228-.114V84.3H27.319V84.076H27.206V83.848H27.092V83.619L26.864,83.5V83.276H26.75V83.047H26.636V82.819H26.522V82.59H26.408V82.362H26.294V82.133H26.18V81.9l-0.228-.114L22.991,75.5V75.16H22.877V74.931H22.763V74.588H22.65V74.36H22.536V74.017H22.422V73.788H22.308L22.194,73.1H22.08V72.873H21.966l-0.114-.686H21.738V71.845H21.624V71.5H21.51V71.159H21.4V70.816H21.283V70.473H21.169V70.13H21.055V69.787H20.941V69.33H20.827V68.987H20.713L20.6,68.3H20.485Zm-5.353,7.43a0.879,0.879,0,0,1-.228.457H14.79v0.229l-0.228.114V76.76l-0.342.229v0.229l-0.228.114V77.56l-0.342.229v0.229l-0.228.114v0.229l-0.342.229v0.229l-0.228.114v0.229l-0.342.229v0.229l-0.228.114v0.229l-0.228.114V80.3l-0.342.229a1.781,1.781,0,0,1-.456.686,47.338,47.338,0,0,0,3.987,8.459l0.114,0.457,0.228,0.114L15.7,90.706l0.228,0.114,0.114,0.457,0.228,0.114v0.229l0.569,0.8h6.834V92.307a2.4,2.4,0,0,1-.57-0.8l-0.228-.114V91.164l-0.228-.114V90.821l-0.228-.114V90.478l-0.228-.114V90.135H22.08l-0.114-.343-0.228-.114V89.449l-0.228-.114L21.4,88.992H21.283l-0.114-.457-0.228-.114-0.114-.457L20.6,87.849l-0.114-.457-0.228-.114-0.228-.686L19.8,86.477V86.248H19.688V86.02H19.574V85.791H19.46V85.562H19.346V85.334l-0.228-.114-0.228-.686H18.777V84.3H18.663V84.076H18.549l-0.228-.686H18.207V83.047H18.093V82.819H17.98V82.59H17.866L17.638,81.9H17.524V81.561H17.41V81.333H17.3l-0.114-.457H17.068V80.532H16.954V80.3H16.841V79.961H16.727V79.732H16.613L16.5,79.161H16.385V78.818H16.271V78.589H16.157L15.929,77.56H15.815V77.332H15.7A4.5,4.5,0,0,0,15.132,75.731Zm43.055,4c0.039,1.351.868,2.633,1.025,4l17.313,1.6V85.219H76.411l-0.228-1.143H76.069V83.619a10.519,10.519,0,0,1-.683-2.4ZM9.551,83.848a1.209,1.209,0,0,1-.228.229V84.3l-0.342.229v0.229l-0.228.114v0.229l-0.342.229v0.229l-0.228.114L8.07,86.02H7.956v0.229l-0.342.229v0.229l-0.228.114v0.229l-0.342.229v0.229l-0.228.114v0.229l-0.342.229a3.964,3.964,0,0,0-.683,2.4H5.906v0.457H6.02l0.228,0.686L6.7,91.964l0.114,0.229H7.045l0.114,0.229H7.5v0.114H7.728V92.65h6.265V92.535H13.879V92.307l-0.228-.114V91.964H13.537V91.735l-0.228-.114V91.392H13.2V91.164H13.082V90.935l-0.228-.114-0.228-.686L12.4,90.021V89.792H12.284V89.563H12.171V89.335H12.057V89.106H11.943V88.877H11.829V88.649H11.715L11.6,88.191H11.487V87.963H11.373V87.734H11.259V87.506H11.145V87.277H11.032l-0.114-.457H10.8V86.591H10.69V86.248H10.576l-0.114-.457H10.348V85.448H10.234l-0.114-.457H10.006A2.919,2.919,0,0,0,9.551,83.848Z"/>
</svg>
