<svg width="24" height="24" version="1.1" viewBox="0 0 24 24" xmlns="http://www.w3.org/2000/svg">
 <path d="m6.05 3.01c-0.323 0.0424-0.632 0.0839-0.94 0.2-0.869 0.328-1.58 1.03-1.9 1.91-0.209 0.571-0.201 1.14-0.201 1.74v10.4c0 0.377-0.0102 0.749 0.0645 1.12 0.0941 0.467 0.301 0.907 0.583 1.29 0.496 0.673 1.28 1.14 2.1 1.26 0.599 0.0882 1.24 0.0327 1.84 0.0327h9.33c0.453 0 0.922 0.0347 1.37-0.0408 1.23-0.207 2.25-1.13 2.59-2.33 0.138-0.496 0.114-1 0.114-1.51v-10.4c0-0.369 0.0141-0.736-0.06-1.1-0.101-0.493-0.314-0.95-0.619-1.35-0.497-0.651-1.27-1.1-2.08-1.22-0.613-0.087-1.26-0.0329-1.88-0.0329h-9.18c-0.368 0-0.766-0.0436-1.13 0.00424m0.21 1.49c0.337-0.0398 0.7-0.00286 1.04-0.00286h9.85c0.29 0 0.593-0.0217 0.88 0.0244 0.426 0.0685 0.825 0.296 1.09 0.636 0.397 0.502 0.387 1.06 0.387 1.67v9.97c0 0.48 0.0613 1.01-0.0772 1.47-0.0884 0.297-0.263 0.555-0.483 0.77-0.113 0.11-0.249 0.202-0.39 0.273-0.166 0.0832-0.336 0.144-0.52 0.173-0.383 0.0616-0.793 0.0244-1.18 0.0244h-10c-0.291 0-0.592 0.0217-0.88-0.0227-0.463-0.0715-0.883-0.337-1.16-0.717-0.338-0.472-0.324-1.01-0.324-1.56v-10.1c0-0.376-0.03-0.767 0.0228-1.14 0.088-0.62 0.535-1.16 1.12-1.38 0.206-0.0776 0.406-0.0861 0.62-0.111m8.9 3.51c-0.324 0.0464-0.522 0.297-0.74 0.516l-5.68 5.68c-0.186 0.186-0.401 0.364-0.563 0.57-0.382 0.485-0.0509 1.21 0.573 1.22 0.347 0.0046 0.562-0.235 0.79-0.463l5.75-5.75c0.194-0.194 0.431-0.382 0.585-0.61 0.35-0.518-0.0827-1.26-0.715-1.17z" fill="#212121"/>
</svg>
