<svg width="16" height="16" version="1.1" viewBox="0 0 16 16" xmlns="http://www.w3.org/2000/svg">
 <path d="m15 6.28c-0.305 0.201-0.615 0.445-0.99 0.5v1.8c0 0.423 0.0601 0.899-0.0542 1.31-0.137 0.493-0.529 0.913-1.03 1.06-0.412 0.118-0.876 0.0643-1.3 0.0643h-3c-0.0917 0-0.223-0.024-0.31 0.0059-0.101 0.0348-0.2 0.162-0.28 0.231-0.214 0.186-0.426 0.374-0.64 0.56-0.545 0.474-1.09 0.952-1.63 1.43-0.252 0.219-0.495 0.479-0.77 0.667v-2.89h-1.04c-0.566 0-1.11-0.0164-1.53-0.46-0.462-0.49-0.431-1.08-0.431-1.71v-3.72c0-0.587-0.0279-1.16 0.399-1.62 0.0791-0.0856 0.164-0.164 0.261-0.23 0.543-0.371 1.25-0.27 1.87-0.27h5.56c0.0355 0 0.103 0.0128 0.133-0.0103 0.0254-0.0197 0.0304-0.0707 0.0387-0.0997 0.0224-0.078 0.0515-0.155 0.0828-0.23 0.0597-0.142 0.13-0.281 0.216-0.41 0.0534-0.0805 0.126-0.155 0.17-0.24h-5.88c-0.992 0-2.05-0.134-2.88 0.522-0.504 0.396-0.851 0.98-0.937 1.62-0.0595 0.441-0.0228 0.905-0.0228 1.35v3.23c0 0.348-0.0218 0.704 0.0117 1.05 0.0425 0.439 0.217 0.88 0.485 1.23 0.378 0.494 0.922 0.834 1.53 0.952 0.235 0.0453 0.472 0.038 0.71 0.038 0.0542 0 0.216-0.0271 0.25 0.0232 0.0272 0.0407 0.0103 0.13 0.0103 0.177v1.36c0 0.423-0.0167 0.807 0.32 1.12 0.0642 0.0595 0.142 0.109 0.22 0.148 0.304 0.152 0.673 0.13 0.96-0.0496 0.2-0.126 0.372-0.31 0.55-0.465 0.601-0.523 1.2-1.05 1.8-1.57 0.186-0.164 0.374-0.326 0.56-0.49 0.0848-0.0746 0.178-0.188 0.28-0.238 0.0847-0.0413 0.246-0.0102 0.34-0.0102h2.76c0.379 0 0.776 0.0333 1.15-0.0342 0.948-0.171 1.74-0.897 1.98-1.84 0.118-0.473 0.0738-0.976 0.0738-1.46v-2.39m-2.16-4.27c-0.386 0.0507-0.735 0.167-1.05 0.403-0.198 0.149-0.367 0.339-0.494 0.553-0.675 1.13-0.0711 2.65 1.22 2.98 0.241 0.0604 0.503 0.0734 0.75 0.0409 0.292-0.0384 0.571-0.143 0.82-0.3 0.198-0.125 0.374-0.289 0.514-0.477 0.626-0.842 0.494-2.08-0.324-2.75-0.216-0.177-0.462-0.305-0.73-0.382-0.222-0.0638-0.479-0.099-0.71-0.0687z" fill="#212121"/>
</svg>
