<svg width="16" height="16" version="1.1" viewBox="0 0 16 16" xmlns="http://www.w3.org/2000/svg">
 <path d="M6.59 12v-.99c-.537 0-1.09.035-1.62-.044a3.513 3.513 0 0 1-2.07-1.13c-1.07-1.18-1.18-3-.281-4.31.244-.355.555-.665.91-.91a3.488 3.488 0 0 1 1.13-.511c.424-.106.856-.11 1.29-.11h3.57c.501 0 1.01-.027 1.51.044a3.47 3.47 0 0 1 1.82.859c.551.498.947 1.17 1.09 1.9.059.293.095.602.115.9.006.088-.023.287.038.356.051.057.2.052.273.068.206.046.376.145.57.216.016-.197.056-.392.069-.59a4.23 4.23 0 0 0-.11-1.26 4.519 4.519 0 0 0-.548-1.34 5.025 5.025 0 0 0-.79-.96 4.402 4.402 0 0 0-2.57-1.16c-.476-.046-.962-.022-1.44-.022h-3.57c-.319 0-.643-.015-.96.023-.953.114-1.9.511-2.59 1.19-.4.39-.743.833-.982 1.34a4.555 4.555 0 0 0 .506 4.71c.317.407.702.754 1.14 1.03.57.367 1.24.607 1.92.675.521.053 1.06.022 1.58.022m-1.58-4.99h-.77c-.142 0-.296-.019-.43.039-.376.16-.393.7-.04.896.139.077.306.065.46.065h.78v.78c0 .151-.016.312.059.45.197.361.74.344.902-.04.057-.134.039-.288.039-.43v-.76h.78c.149 0 .314.013.45-.059.364-.192.35-.736-.03-.902-.133-.058-.288-.039-.43-.039h-.77v-.77c0-.15.017-.31-.05-.45-.174-.37-.71-.364-.895-.01-.07.135-.055.293-.055.44v.79m5.97-.996c-.299.041-.592.104-.86.25-.568.307-.954.914-1.02 1.56a4.054 4.054 0 0 0-.01.76c.01.104.054.305-.003.398-.03.05-.09.041-.139.041h-.38c-.317 0-.642.103-.823.38-.249.38-.149.865-.147 1.29.004.92.01 1.84 0 2.76-.005.423-.09.922.213 1.27.361.415 1.08.29 1.57.29h3.97c.177 0 .365.019.54-.014.343-.065.602-.351.676-.685.058-.265.014-.533.014-.8V10.2c0-.326.007-.671-.24-.92-.227-.225-.547-.26-.85-.26-.091 0-.357.045-.404-.05-.048-.1-.007-.245-.007-.35 0-.295.023-.587-.013-.88-.116-.96-1.09-1.86-2.09-1.73m.02.998c.433-.051.876.236 1.03.637.073.19.07.401.07.6v.58c0 .062.021.171-.06.188-.155.032-.321.002-.48.002h-1.33c-.04 0-.102.011-.132-.024-.031-.037-.018-.11-.018-.156v-.41c0-.225-.017-.46.042-.68.109-.41.465-.688.878-.737m.03 4.25c.418-.06.842.364.819.777-.023.397-.316.674-.7.726-.525.072-.915-.497-.773-.976.09-.3.352-.484.654-.527z" fill="#212121"/>
</svg>
