<svg width="16" height="16" version="1.1" viewBox="0 0 16 16" xmlns="http://www.w3.org/2000/svg">
 <path d="m5.36 6.01c-0.0412 0.325-0.118 0.648-0.176 0.97-0.112 0.623-0.228 1.25-0.34 1.87-0.0475 0.263-0.0986 0.526-0.143 0.79-0.0158 0.0926-0.0152 0.27-0.0707 0.347-0.0281 0.0387-0.109 0.0232-0.15 0.0232h-1.59c-0.18 0-0.4-0.0342-0.57 0.0345-0.408 0.165-0.414 0.777 0.01 0.928 0.215 0.0768 0.485 0.037 0.71 0.037h1.41c-0.0833 0.656-0.237 1.31-0.354 1.96-0.0495 0.274-0.173 0.605 0.0194 0.85 0.23 0.293 0.721 0.218 0.854-0.13 0.0543-0.143 0.0671-0.31 0.0932-0.46 0.0453-0.26 0.0948-0.52 0.142-0.78 0.0589-0.327 0.121-0.653 0.178-0.98 0.0261-0.15 0.0744-0.308 0.0775-0.46h1.54c0-0.328-0.0211-0.675 0.02-1h-1.37l0.176-0.97 0.348-1.92 0.138-0.76 0.0575-0.35h2.49c0.0731 0 0.181 0.02 0.25-0.00603 0.0511-0.0193 0.0882-0.0844 0.123-0.124 0.0662-0.0752 0.141-0.143 0.217-0.207 0.233-0.197 0.501-0.354 0.79-0.453 0.307-0.105 0.619-0.148 0.94-0.178 0.0855-0.00814 0.174-0.0017 0.26-0.0017 0.0289 0 0.0783 0.00902 0.103-0.0103 0.0394-0.0313 0.0401-0.152 0.0482-0.2 0.0318-0.187 0.0692-0.373 0.102-0.56 0.0674-0.387 0.142-0.773 0.212-1.16 0.0389-0.216 0.105-0.44 0.0954-0.66-0.0107-0.236-0.225-0.416-0.45-0.438-0.229-0.0229-0.453 0.129-0.52 0.348-0.0605 0.198-0.0784 0.416-0.116 0.62-0.0866 0.463-0.164 0.928-0.254 1.39-0.0303 0.156-0.0575 0.313-0.0858 0.47-0.0077 0.0431-7e-3 0.133-0.0473 0.16-0.062 0.0407-0.224 0.0103-0.297 0.0103h-3.67c0.0761-0.599 0.217-1.2 0.324-1.79 0.0451-0.25 0.134-0.525 0.115-0.78-0.0334-0.455-0.672-0.57-0.908-0.21-0.122 0.186-0.127 0.466-0.165 0.68-0.083 0.46-0.169 0.92-0.252 1.38-0.0313 0.173-0.0608 0.347-0.0942 0.52-0.00956 0.0494-0.00795 0.147-0.0459 0.184-0.0324 0.0312-0.113 0.016-0.154 0.016h-1.52c-0.184 0-0.398-0.0318-0.57 0.0444-0.406 0.179-0.356 0.769 0.04 0.921 0.198 0.076 0.461 0.0346 0.67 0.0346h1.36m5.98 0.00424c-0.283 0.0373-0.547 0.102-0.8 0.239-0.593 0.321-0.965 0.934-1.03 1.6-0.0255 0.268-0.0017 0.55-0.0017 0.82 0 0.0768 0.0328 0.252-0.0103 0.317-0.0251 0.0376-0.101 0.0232-0.14 0.0232h-0.39c-0.328 0-0.624 0.102-0.813 0.39-0.233 0.356-0.147 0.855-0.147 1.26v2.79c0 0.413-0.0843 0.914 0.212 1.25 0.257 0.292 0.568 0.3 0.928 0.3h4.61c0.173 0 0.359 0.0192 0.53-0.0108 0.347-0.061 0.613-0.341 0.691-0.679 0.0598-0.26 0.0189-0.564 0.0189-0.83v-3.27c0-0.331 0.0165-0.661-0.23-0.92-0.247-0.259-0.534-0.28-0.87-0.28h-0.29c-0.035-2e-5 -0.0868 0.00776-0.104-0.0315-0.0413-0.0946-6e-3 -0.275-6e-3 -0.379 0-0.305 0.0218-0.618-0.0227-0.92-0.145-0.981-1.13-1.8-2.14-1.67m0.04 0.999c0.447-0.0549 0.886 0.198 1.06 0.617 0.0751 0.185 0.0745 0.384 0.0745 0.58v0.61c0 0.0491 0.025 0.177-0.0406 0.189-0.154 0.0262-0.333 0.00148-0.489 0.00148h-1.35c-0.0315 0-0.0974 0.0122-0.12-0.016-0.0257-0.0325-0.0103-0.115-0.0103-0.154v-0.4c0-0.217-0.0195-0.447 0.0289-0.66 0.092-0.405 0.439-0.717 0.851-0.767m0.02 4.25c0.616-0.0756 1.09 0.611 0.741 1.15-0.0568 0.0876-0.126 0.159-0.211 0.218-0.116 0.0801-0.242 0.113-0.38 0.129-0.0908 0.0108-0.194-0.0082-0.28-0.0371-0.589-0.198-0.7-1.02-0.16-1.35 0.0893-0.0543 0.186-0.0905 0.29-0.103z" fill="#212121"/>
</svg>
