<svg width="16" height="16" viewBox="0 0 16 16" fill="none" xmlns="http://www.w3.org/2000/svg"><path d="M9.86 13.8v.62c0 .119-.013.246.031.36a.41.41 0 0 0 .47.245c.11-.025.204-.094.3-.151.425-.257.85-.519 1.28-.768.158-.092.333-.247.51-.299.143-.043.35-.007.5-.007.585 0 1.17.046 1.58-.46.263-.325.262-.694.262-1.09V9.73c0-.464.019-.88-.295-1.26-.346-.42-.84-.42-1.34-.42h-3.01c-.535 0-1.07-.067-1.51.296-.396.326-.42.783-.42 1.25v2.37c0 .593-.048 1.22.51 1.6.102.07.213.127.33.167.256.088.534.061.8.061zm-4.5-7.79c-.042.325-.118.648-.176.97-.112.623-.228 1.25-.34 1.87l-.148.81c-.016.088-.013.254-.066.327-.028.039-.109.023-.15.023H2.89c-.18 0-.4-.034-.57.035-.41.166-.412.775.01.928.214.078.486.037.71.037h1.41c-.077.596-.219 1.19-.322 1.78-.043.25-.135.525-.117.78.034.462.675.578.914.21.118-.182.122-.461.16-.67.085-.47.168-.941.258-1.41.03-.16.06-.32.087-.48.009-.05.009-.157.047-.194.03-.03.105-.016.144-.016h1.87v-1H5.65l.176-.97.348-1.92.138-.76.057-.35h3.99l-.23 1.28h.74c.061 0 .215.028.264-.01.054-.042.056-.245.068-.31.06-.308.162-.649.168-.96h1.8c.27 0 .562.035.741-.21a.504.504 0 0 0-.28-.776c-.212-.054-.474-.014-.69-.014h-1.38c.072-.567.2-1.14.307-1.7.054-.276.152-.588.131-.87-.033-.46-.684-.572-.914-.2-.11.179-.114.437-.153.64-.09.469-.173.94-.258 1.41-.031.177-.06.354-.096.53-.009.046-.008.152-.05.18-.063.04-.225.01-.298.01H6.56c.076-.6.217-1.2.324-1.79.045-.25.134-.525.115-.78-.034-.466-.68-.565-.915-.2-.112.174-.114.43-.152.63-.092.482-.17.968-.264 1.45-.03.16-.06.32-.087.48-.009.05-.009.157-.047.194-.032.031-.113.016-.154.016H3.85c-.175 0-.385-.032-.55.039-.406.174-.379.778.03.927.204.074.466.034.68.034z" fill="#000000"/></svg>