<svg viewBox="0 0 850 601" fill="none" xmlns="http://www.w3.org/2000/svg"><path d="M618.74 85.19C618.74 85.19 618.74 85.19 618.74 85.19C618.73 85.19 618.75 85.19 618.74 85.19L775.93 85.19L618.74 85.19L618.74 85.19L775.93 85.19L618.74 85.19L618.74 85.19C618.74 85.19 618.74 85.19 618.74 85.19C618.74 85.19 618.74 85.19 618.74 85.19L618.74 85.19Z" fill="#878CFF" fill-opacity="1" fill-rule="evenodd"/><path d="M850 11.12C850 52.03 816.83 85.19 775.93 85.19L618.74 85.19L618.74 85.19C618.74 85.19 618.74 85.19 618.74 85.19C625.27 85.17 630.59 79.87 630.59 73.34C630.59 32.43 597.43 -0.73 556.52 -0.73L838.14 -0.73C844.69 -0.73 850 4.58 850 11.12Z" fill="#666CFF" fill-opacity="1" fill-rule="evenodd"/><path d="M776.35 265.03L776.35 334.96C776.35 339.37 772.77 342.96 768.35 342.96L682.75 342.96C675.26 329.98 666.08 318.01 655.44 307.37C639.48 291.41 620.54 278.75 599.69 270.12C578.84 261.48 556.5 257.03 533.93 257.03L768.35 257.03C772.77 257.03 776.35 260.62 776.35 265.03Z" fill="#666CFF" fill-opacity="1" fill-rule="evenodd"/><path d="M556.52 -0.73L171.84 -0.73C149.27 -0.73 126.93 3.72 106.08 12.35C85.23 20.99 66.28 33.65 50.33 49.6C34.37 65.56 21.71 84.5 13.08 105.35C4.44 126.2 0 148.55 0 171.11C0 193.68 4.44 216.03 13.08 236.87C21.71 257.72 34.37 276.67 50.33 292.62C66.28 308.58 85.23 321.24 106.08 329.87C126.93 338.51 149.27 342.96 171.84 342.96L533.93 342.96L533.93 342.96C544.84 343.09 556.73 345.31 566.81 349.49C577.24 353.81 586.71 360.14 594.69 368.12C602.67 376.1 609 385.57 613.32 395.99C617.64 406.42 619.86 417.59 619.86 428.88C619.86 440.16 617.64 451.33 613.32 461.76C609 472.18 602.67 481.66 594.69 489.64C586.71 497.61 577.24 503.94 566.81 508.26C556.73 512.44 544.84 514.66 533.93 514.8L401.98 514.8L87.03 514.8C80.48 514.8 75.17 520.1 75.17 526.65C75.17 567.56 108.34 600.72 149.25 600.72L401.98 600.72L533.93 600.72C533.96 600.72 534 600.72 534.03 600.72L534.03 600.72L838.14 600.72C844.69 600.72 850 595.41 850 588.87C850 547.96 816.83 514.8 775.93 514.8L682.75 514.8C686.49 508.31 689.81 501.58 692.69 494.64C701.33 473.79 705.77 451.44 705.77 428.88C705.77 406.31 701.33 383.96 692.69 363.11C689.81 356.17 686.49 349.44 682.75 342.96L768.35 342.96C772.77 342.96 776.35 339.37 776.35 334.96L776.35 265.03C776.35 260.62 772.77 257.03 768.35 257.03L533.93 257.03L171.84 257.03C160.55 257.03 149.38 254.82 138.95 250.5C128.53 246.18 119.06 239.85 111.08 231.87C103.1 223.89 96.77 214.42 92.45 204C88.13 193.57 85.91 182.4 85.91 171.11C85.91 159.83 88.13 148.66 92.45 138.23C96.77 127.81 103.1 118.33 111.08 110.35C119.06 102.38 128.53 96.04 138.95 91.73C149.38 87.41 160.55 85.19 171.84 85.19L618.74 85.19C618.74 85.19 618.74 85.19 618.74 85.19L618.74 85.19C625.27 85.17 630.59 79.87 630.59 73.34C630.59 32.43 597.43 -0.73 556.52 -0.73ZM776.35 265.03L776.35 334.96C776.35 339.37 772.77 342.96 768.35 342.96L682.75 342.96C675.26 329.98 666.08 318.01 655.44 307.37C639.48 291.41 620.54 278.75 599.69 270.12C578.84 261.48 556.5 257.03 533.93 257.03L768.35 257.03C772.77 257.03 776.35 260.62 776.35 265.03ZM850 588.87C850 595.41 844.69 600.72 838.14 600.72L534.03 600.72L534.03 600.72C534.02 600.72 534.04 600.72 534.03 600.72C556.55 600.7 578.88 596.25 599.69 587.64C620.54 579 639.48 566.34 655.44 550.39C666.08 539.74 675.26 527.77 682.75 514.8L775.93 514.8C816.83 514.8 850 547.96 850 588.87Z" fill="#878CFF" fill-opacity="1" fill-rule="evenodd"/><path d="M850 588.87C850 595.41 844.69 600.72 838.14 600.72L534.03 600.72C556.55 600.7 578.88 596.25 599.69 587.64C620.54 579 639.48 566.34 655.44 550.39C666.08 539.74 675.26 527.77 682.75 514.8L775.93 514.8C816.83 514.8 850 547.96 850 588.87Z" fill="#666CFF" fill-opacity="1" fill-rule="evenodd"/></svg>