<svg width="18" height="18" viewBox="0 0 18 18" fill="none" xmlns="http://www.w3.org/2000/svg">
<path d="M9.49773 0L17.0535 0.00146055L17.1744 0.0153553L17.2621 0.034894L17.366 0.0693758L17.4551 0.109708L17.5189 0.145329L17.5814 0.186851L17.6454 0.236749L17.7085 0.295075L17.8029 0.404712L17.8746 0.515958L17.928 0.628685L17.9634 0.734029L17.9791 0.799206L17.9882 0.851556L17.9993 1V8.50389C17.9993 9.05617 17.5515 9.50389 16.9993 9.50389C16.4864 9.50389 16.0638 9.11785 16.006 8.62051L15.9993 8.50389L15.999 3.414L3.414 15.998L8.50153 15.9985C9.01436 15.9985 9.43703 16.3846 9.4948 16.8819L9.50153 16.9985C9.50153 17.5114 9.11549 17.934 8.61815 17.9918L8.50153 17.9985L0.940596 17.9968L0.845012 17.9866L0.768367 17.9716L0.690874 17.9498L0.621848 17.9246L0.531754 17.8824L0.442207 17.8286L0.350741 17.7591L0.38325 17.7857C0.321436 17.7372 0.265478 17.6816 0.216609 17.6201L0.165488 17.5497L0.126724 17.4863L0.09373 17.4218L0.0599372 17.3403L0.0348208 17.2608L0.0113151 17.149L0.00396442 17.0878L0 16.9985V9.49464C0 8.94235 0.447715 8.49464 1 8.49464C1.51284 8.49464 1.93551 8.88068 1.99327 9.37802L2 9.49464V14.583L14.584 2H9.49773C8.9849 2 8.56223 1.61396 8.50446 1.11662L8.49773 1C8.49773 0.447715 8.94545 0 9.49773 0Z" fill="white"/>
</svg>
