<svg viewBox="0 0 40 32" xmlns="http://www.w3.org/2000/svg" xmlns:xlink="http://www.w3.org/1999/xlink" width="40.000000" height="32.000000" fill="none" customFrame="#000000">
	<path id="video" d="M6.25 0C2.79822 0 0 2.79822 0 6.25L0 25.75C0 29.2018 2.79822 32 6.25 32L33.75 32C37.2018 32 40 29.2018 40 25.75L40 6.25C40 2.79822 37.2018 0 33.75 0L6.25 0ZM14 9.99961C14 8.86099 15.2188 8.13752 16.2183 8.6828L27.2176 14.6831C28.2598 15.2516 28.2598 16.7481 27.2176 17.3167L16.2183 23.3169C15.2188 23.8622 14 23.1387 14 22.0001L14 9.99961Z" fill="rgb(255,255,255)" fill-rule="nonzero" />
</svg>
