<svg width="241" height="98" viewBox="0 0 241 98" fill="none" xmlns="http://www.w3.org/2000/svg">
<path fill-rule="evenodd" clip-rule="evenodd" d="M0 12.6981C0 9.25032 1.47498 5.94368 4.10046 3.50569C6.00704 1.73532 8.40687 0.528301 11 2.43798e-06V11.6981C11 52.5671 44.1309 85.6981 85 85.6981C97.8639 85.6981 109.961 82.4157 120.5 76.6427C124.697 78.942 129.142 80.8462 133.784 82.3053C119.586 92.2561 102.573 97.6981 85 97.6981C62.4566 97.6981 40.8365 88.7428 24.8959 72.8022C8.95532 56.8615 0 35.2415 0 12.6981ZM139.725 77.7381C141.581 76.1766 143.376 74.5304 145.104 72.8022C161.045 56.8615 170 35.2415 170 12.6981C170 9.2502 168.525 5.94368 165.899 3.50569C163.993 1.73532 161.593 0.528301 159 2.69331e-06V11.6981C159 37.1899 146.11 59.6712 126.493 72.9798C130.682 75.0009 135.111 76.6049 139.725 77.7381ZM153 0C150.407 0.528297 148.007 1.73531 146.101 3.50569C143.475 5.94368 142 9.25032 142 12.6981H142.001C142.001 27.8156 135.996 42.314 125.306 53.0039C121.214 57.0959 116.564 60.5015 111.534 63.1466C114.333 65.5673 117.331 67.7635 120.5 69.7073C139.995 57.7513 153 36.2434 153 11.6981V0ZM105.573 65.8569C99.0729 68.3726 92.1048 69.6991 85 69.6991C69.8824 69.6991 55.384 63.6937 44.6942 53.0039C34.0045 42.3142 27.999 27.8158 27.999 12.6981C27.999 9.2502 26.525 5.94368 23.8995 3.50569C21.9929 1.73532 19.5931 0.528301 17 2.69331e-06V11.6981C17 49.2534 47.4446 79.6981 85 79.6981C95.5729 79.6981 105.582 77.2851 114.507 72.9798C111.346 70.8351 108.359 68.4522 105.573 65.8569Z" fill="#FF00A8"/>
<path fill-rule="evenodd" clip-rule="evenodd" d="M107.216 82.3053C121.414 92.2561 138.427 97.6981 156 97.6981C178.543 97.6981 200.163 88.7427 216.104 72.8021C232.045 56.8616 241 35.2415 241 12.6981C241 9.25024 239.525 5.94365 236.899 3.50568C234.993 1.73531 232.593 0.528299 230 1.42924e-06V11.6981C230 52.5671 196.869 85.6981 156 85.6981C143.136 85.6981 131.039 82.4157 120.5 76.6427C116.303 78.942 111.858 80.8462 107.216 82.3053ZM224 0C221.407 0.5283 219.007 1.73532 217.101 3.50569C214.475 5.94366 213 9.25026 213 12.6981H213.001C213.001 27.8157 206.996 42.3141 196.306 53.0039C185.616 63.6936 171.118 69.6991 156 69.6991C148.895 69.6991 141.927 68.3726 135.427 65.8569C132.641 68.4522 129.654 70.8351 126.493 72.9798C135.418 77.2851 145.427 79.6981 156 79.6981C193.555 79.6981 224 49.2534 224 11.6981V0ZM129.466 63.1466C124.436 60.5015 119.786 57.0959 115.694 53.0039C105.004 42.3141 98.999 27.8157 98.999 12.6981L99 12.6981C99 9.25024 97.525 5.94365 94.8995 3.50568C92.9929 1.73531 90.5931 0.528299 88 1.14155e-06V11.6981C88 36.2434 101.005 57.7513 120.5 69.7073C123.669 67.7635 126.667 65.5673 129.466 63.1466ZM82 1.12653e-06C79.4069 0.528302 77.0071 1.73532 75.1005 3.50569C72.475 5.94366 71 9.25026 71 12.6981C71 35.2415 79.9553 56.8616 95.8959 72.8022C97.6242 74.5304 99.4192 76.1766 101.275 77.7381C105.889 76.6049 110.318 75.0009 114.507 72.9798C94.8898 59.6712 82 37.1899 82 11.6981V1.12653e-06Z" fill="#2666FF"/>
</svg>