<svg width="20" height="20" version="1.1" viewBox="0 0 20 20" xmlns="http://www.w3.org/2000/svg">
 <path d="M7.1 7.01H3.99c-.36 0-.906-.07-.977.42a.506.506 0 0 0 .357.561c.146.039.311.02.46.02H6.9l-.114.55-.53 2.65L6.1 12H2.99c-.363 0-.913-.065-.977.43a.5.5 0 0 0 .367.554c.144.037.312.015.46.015H5.9c-.2.773-.317 1.58-.474 2.36l-.276 1.38c-.046.228-.107.459-.137.69-.056.427.429.739.787.482.161-.115.194-.291.23-.472l.828-4.14c.013-.064.018-.252.075-.29.041-.027.13-.01.177-.01h2.11c.038-.254.17-.516.27-.75.035-.082.094-.162.11-.25H7.12l.196-.99.524-2.62.07-.38h5.04l-.104.49-.166.81c.112-.016.221-.066.33-.096.24-.067.492-.135.74-.154l.144-.7.066-.35h3.06c.356 0 .89.074.975-.4a.506.506 0 0 0-.365-.582c-.13-.035-.276-.018-.41-.018h-3.05c.207-.8.33-1.63.502-2.44.096-.449.188-.9.278-1.35.042-.21.107-.426.128-.64.05-.506-.6-.757-.903-.35-.08.107-.095.252-.12.38-.046.223-.09.447-.137.67-.179.842-.35 1.69-.52 2.53-.059.294-.123.586-.182.88-.013.068-.02.271-.079.31-.074.049-.279.01-.367.01H8.12c.03-.387.154-.787.23-1.17l.61-3.05c.043-.212.081-.428-.073-.61-.254-.296-.771-.183-.864.2-.227.933-.378 1.89-.566 2.83L7.219 6.4c-.04.2-.102.408-.118.61m7.17 3c-.286.038-.568.055-.85.126-.72.18-1.39.537-1.94 1.03a4.434 4.434 0 0 0-1 1.33c-.852 1.7-.508 3.86.852 5.2a4.57 4.57 0 0 0 1.29.895 4.61 4.61 0 0 0 2.55.362c1.47-.198 2.8-1.2 3.42-2.55.308-.67.445-1.4.413-2.14-.084-1.91-1.45-3.57-3.28-4.09-.448-.128-.983-.223-1.45-.162m.74 5v1.31c0 .209.03.444-.108.62a.508.508 0 0 1-.86-.12c-.067-.166-.035-.365-.038-.54-.004-.25.004-.5 0-.75-.003-.162-.026-.351.006-.51-.137-.033-.3-.01-.44-.01h-.87c-.176 0-.377.027-.54-.054-.372-.186-.362-.752.03-.912.175-.071.404-.035.59-.035h1.22c.025-.417.002-.842.004-1.26 0-.178-.033-.392.039-.56.165-.383.74-.41.918-.02.07.152.049.328.049.49v1.21c0 .035-.011.097.016.124.027.028.089.016.124.016h1.23c.161 0 .331-.021.48.053.378.19.34.75-.04.908-.178.075-.41.039-.6.039z" fill="#212121"/>
</svg>
