<svg width="20" height="20" version="1.1" viewBox="0 0 20 20" xmlns="http://www.w3.org/2000/svg">
    <path d="M9.5 17c-.034-.14-.11-.28-.16-.42a5.5 5.5 0 0 1-.19-.74 6.108 6.108 0 0 1-.067-.42c-.008-.059 0-.15-.032-.2-.1-.16-.3-.29-.44-.41-.29-.26-.58-.53-.86-.8-.39-.37-.79-.84-1.4-.94-.28-.046-.57-.023-.85-.023h-1.4c-.3 0-.71.079-.95-.14-.16-.15-.16-.35-.16-.56v-4.6c0-.2-.005-.38.14-.54.24-.26.71-.17 1-.17h1.5c.34 0 .68.026 1-.11.25-.1.43-.27.63-.45.28-.25.55-.52.83-.77.96-.87 1.9-1.8 2.9-2.7v7.1c.25-.14.47-.32.72-.46.064-.035.24-.084.27-.15.019-.042.006-.11.006-.16v-6c0-.2.018-.41-.029-.6-.088-.37-.4-.65-.76-.73-.68-.15-1.1.48-1.6.89-.71.67-1.4 1.3-2.2 2l-.7.65c-.12.12-.25.26-.39.35-.14.091-.29.087-.45.087h-2c-.52 0-1-.007-1.4.35-.56.48-.53 1.2-.53 1.8v3.7c0 .61-.024 1.2.44 1.7.24.24.57.4.91.43.21.021.44.002.65.002h1.5c.24 0 .56-.05.79.034.16.057.27.19.39.31.18.18.37.35.56.52.49.45.97.9 1.5 1.4.18.17.36.34.55.51.086.078.17.17.26.24m8.5-6.8c.013-1.6-.44-3.2-1.3-4.5-.16-.24-.33-.46-.51-.68-.082-.098-.16-.22-.27-.29a.524.524 0 0 0-.61.001c-.18.14-.24.4-.15.6.062.14.19.25.29.37.15.18.29.37.41.56.44.67.77 1.4.96 2.2.064.26.12.53.15.79.008.087.024.17.03.26.003.04-.006.091.02.13.063.08.24.12.33.17.23.13.44.3.67.43m-2.6-1c-.08-.32-.14-.64-.26-.96-.072-.2-.16-.4-.26-.59-.072-.14-.15-.32-.28-.42a.508.508 0 0 0-.78.25c-.065.22.044.38.14.57a4.842 4.842 0 0 1 .37.96c.008.033.012.097.041.12.049.038.18.007.24.015.25.033.52.036.78.056m-1.2.93c-.29.038-.57.054-.85.12-.72.18-1.4.54-1.9 1-.41.37-.75.83-1 1.3-.91 1.8-.44 4.1 1.1 5.4.31.28.68.51 1.1.68.8.36 1.7.48 2.6.36 1.5-.2 2.8-1.2 3.4-2.5.32-.67.46-1.4.43-2.2-.084-1.9-1.4-3.6-3.3-4.1-.45-.13-.98-.22-1.4-.16m.74 5v1.3c0 .22.027.45-.12.63-.24.28-.72.19-.85-.15-.071-.18-.036-.42-.035-.62v-.77c0-.13-.018-.27.007-.4-.14-.033-.3-.01-.44-.01h-.87c-.19 0-.39.028-.56-.063-.36-.19-.33-.75.05-.9.17-.07.4-.034.59-.034h1.2c.023-.4.004-.82.003-1.2 0-.19-.036-.42.04-.6.16-.38.74-.41.92-.02.069.15.049.33.049.49v1.2c0 .035-.011.097.016.12.027.027.089.016.12.016h1.2c.16 0 .33-.022.48.053.38.19.34.75-.04.91-.18.075-.41.04-.6.04z" fill="#212121"/>
</svg>
