<svg xmlns="http://www.w3.org/2000/svg" fill="none" viewBox="0 0 24 24">
  <path fill="#FFA500" d="M10.798 2.4h.537c.374.14.734.335 1.06.555.104.421.287.87.129 1.3-.135.12-.318.168-.48.242.02.166.048.33.075.496.306-.025.604-.102.905-.158.041-.171.052-.357.165-.503.025.116.045.233.06.351.161.09.318.217.518.197 1.262.001 2.525-.003 3.787 0 .138-.01.205.131.3.203.003-.256.002-.512.014-.769l.149.003c.008.225-.017.457.048.676.07.016.142.02.215.029l.012.264c.388.011.78.036 1.164-.027.259-.038.521-.012.782-.012.004.088.012.176.029.263-.322.022-.648.043-.969-.008-.513-.06-1.026.044-1.538.017-.018.066-.034.133-.05.2-.493.005-.986-.003-1.478-.001-.164-.004-.343.03-.447.162-.145.173-.32.32-.46.497-.045.325.088.64.164.952-.116.04-.232.078-.346.12-.118.35-.071.8-.407 1.046-.186.134-.35.3-.562.395-.155.066-.32-.003-.476-.025-.579-.084-1.058-.424-1.575-.659-.034.134-.072.266-.11.399.157.097.36.18.412.37.079.28.013.573.001.858-.024.26-.032.524-.058.784-.025.254-.178.472-.336.67-.147-.036-.291-.076-.437-.113-.157.322-.026.722.232.962.672.699 1.036 1.598 1.378 2.475.058.185.257.295.29.49.057.207.137.414.119.631-.026.382-.055.763-.095 1.143-.028.279-.136.557-.073.838.048.23.077.472-.01.697-.119.282-.118.591-.12.89.006.198.017.415.16.57.17.2.335.407.538.577.25.157.596.159.802.386.065.124.018.269.016.401-.65.095-1.332.102-1.964-.093-.357-.11-.75.08-1.092-.108.019-.39.117-.771.261-1.136.06-.272-.005-.553-.01-.829-.005-.238-.133-.448-.182-.677-.142-.49-.182-1.002-.206-1.509-.031-.249.19-.437.198-.68a.73.73 0 0 0-.127-.615c-.242-.007-.569.054-.705-.195-.283-.401-.56-.808-.842-1.21-.099-.172-.336-.132-.498-.207-.145-.128-.217-.309-.307-.471-.053.186-.125.373-.27.514-.226.218-.308.522-.426.799-.083.2-.158.405-.188.619-.031.161-.039.35-.19.456-.223.161-.302.433-.505.61a1.05 1.05 0 0 0-.294.517c-.016.173.036.348-.01.52-.082.312-.262.588-.394.881-.094.207-.143.43-.246.632-.068.142-.244.188-.34.307a2.174 2.174 0 0 0-.268 1.532c.08.207.138.423.089.645-.171.022-.341.05-.513.064H5.27c-.138-.027-.28-.048-.407-.11a1.457 1.457 0 0 1 .006-.875c.125-.425.238-.853.35-1.281.076-.21-.104-.398-.087-.608-.019-.309.182-.564.327-.822.135-.23.087-.506.182-.748.213-.526.616-.953.857-1.466.074-.209-.006-.43.008-.646.018-.407.102-.81.176-1.21.024-.155.077-.319.014-.471a1.191 1.191 0 0 1-.087-.569c.028-.178-.084-.355-.014-.529.037-.148.179-.231.292-.323.02-.607-.21-1.204-.113-1.81.11-.13.288-.177.443-.243a52.31 52.31 0 0 1-.679-.138 2.85 2.85 0 0 1 .08-.727c.082-.373.037-.759.099-1.134.01-.096.118-.128.204-.131.205-.015.413-.024.615-.07-.06-.475-.11-.959.002-1.43.108-.558.369-1.122.857-1.467.337-.217.823-.346 1.175-.086l.115-.075a1.745 1.745 0 0 1 .165-1.611c.21-.324.578-.508.947-.62Zm3.3 3.627c-.017.138-.062.275-.201.34.184-.01.37-.01.551-.048l-.012-.303c-.113.002-.226.006-.337.01Zm-.38.39-.064.077c.03.186.175.34.273.501.142-.19.285-.381.42-.577-.21-.009-.42-.022-.63-.002Z"/>
</svg>