<svg width="24" height="24" version="1.1" viewBox="0 0 24 24" xmlns="http://www.w3.org/2000/svg">
 <path d="m4.97 11.4c-0.247 0-0.494 8e-4 -0.74 0.0074-0.125 0.0033-0.237-0.0136-0.36 0.023-0.511 0.152-0.885 0.834-0.657 1.34 0.125 0.277 0.398 0.427 0.637 0.597 0.421 0.3 0.839 0.606 1.26 0.907 1.59 1.14 3.17 2.3 4.77 3.44 0.455 0.324 0.905 0.656 1.36 0.98 0.233 0.166 0.457 0.37 0.76 0.37s0.527-0.204 0.76-0.37c0.455-0.324 0.905-0.656 1.36-0.98 1.6-1.14 3.18-2.3 4.77-3.44 0.421-0.301 0.839-0.607 1.26-0.907 0.238-0.17 0.512-0.32 0.637-0.597 0.228-0.506-0.146-1.19-0.657-1.34-0.123-0.0366-0.236-0.0197-0.36-0.023-0.246-0.0066-0.493-0.0074-0.74-0.0074 0.0802-0.193 0.192-0.375 0.287-0.56l0.6-1.16c0.388-0.752 0.752-1.52 1.17-2.26 0.107-0.189 0.196-0.389 0.299-0.58 0.198-0.366 0.447-0.735 0.254-1.16-0.221-0.486-0.826-0.717-1.32-0.554-0.165 0.0545-0.332 0.214-0.477 0.311-0.332 0.221-0.668 0.438-1 0.66-1.37 0.915-2.75 1.83-4.13 2.73-0.378 0.247-0.75 0.502-1.13 0.747-0.242 0.156-0.534 0.305-0.74 0.507-0.177 0.173-0.279 0.426-0.399 0.64-0.141 0.253-0.332 0.518-0.431 0.79h-0.02c-0.0991-0.272-0.29-0.537-0.431-0.79-0.119-0.214-0.222-0.466-0.399-0.64-0.206-0.202-0.498-0.351-0.74-0.507-0.38-0.244-0.752-0.5-1.13-0.747-1.38-0.902-2.76-1.81-4.13-2.73-0.326-0.217-0.653-0.431-0.98-0.647-0.154-0.101-0.318-0.254-0.489-0.321-0.487-0.19-1.11 0.0786-1.33 0.551-0.193 0.425 0.0556 0.794 0.254 1.16 0.103 0.191 0.192 0.391 0.299 0.58 0.415 0.737 0.779 1.51 1.17 2.26l0.6 1.16c0.0956 0.185 0.207 0.367 0.287 0.56m-0.26-3.81c0.391 0.3 0.83 0.55 1.24 0.823 0.861 0.574 1.72 1.15 2.59 1.71 0.361 0.236 0.721 0.474 1.08 0.713 0.14 0.0932 0.367 0.186 0.468 0.322 0.144 0.194 0.243 0.437 0.361 0.648 0.249 0.446 0.5 0.891 0.744 1.34 0.183 0.337 0.413 0.711 0.858 0.668 0.448-0.0434 0.63-0.424 0.818-0.778 0.234-0.441 0.483-0.875 0.728-1.31 0.102-0.181 0.188-0.434 0.33-0.585 0.143-0.152 0.381-0.256 0.554-0.372 0.412-0.275 0.828-0.545 1.24-0.82 0.85-0.567 1.7-1.14 2.56-1.69 0.34-0.219 0.666-0.476 1.02-0.673-0.0324 0.113-0.104 0.216-0.157 0.32l-0.3 0.58c-0.337 0.653-0.667 1.31-1.01 1.96-0.103 0.196-0.2 0.395-0.305 0.59-0.084 0.155-0.185 0.301-0.242 0.47-0.158 0.47-0.0251 1.06 0.455 1.29 0.153 0.0728 0.312 0.103 0.48 0.103v0.01l-6.09 4.39-0.13 0.0768-0.13-0.0768-6.09-4.39v-0.01c0.48 0 0.894-0.307 0.985-0.79 0.0306-0.162 0.0129-0.33-0.0199-0.49-0.0658-0.322-0.296-0.619-0.443-0.91-0.354-0.704-0.733-1.4-1.08-2.1-0.12-0.241-0.242-0.483-0.371-0.72-0.0394-0.0729-0.151-0.217-0.137-0.3z" fill="#010101"/>
</svg>
