<svg width="24" height="24" version="1.1" viewBox="0 0 24 24" xmlns="http://www.w3.org/2000/svg">
 <path d="m10.6 6.8c-0.448 0.392-0.894 0.782-1.26 1.25-0.151 0.195-0.323 0.593-0.575 0.663-0.74 0.205-1.79 0.0166-2.56 0.0166-0.352 0-0.798-0.0723-1.08 0.186-0.394 0.361-0.208 1.01 0.296 1.14 0.851 0.224 2 0.0292 2.88 0.0292l-0.261 1.25c-0.465 0-1.13-0.122-1.57 0.0642-0.508 0.218-0.543 0.948-0.051 1.21 0.425 0.224 1.15 0.0883 1.62 0.0883 0.0115 4.15 4.75 6.68 8.42 5.76 3.11-0.781 5.03-3.57 5.02-6.7-0.0054-1.12-0.406-2.25-0.984-3.19-0.63-1.03-1.63-1.93-2.73-2.44-1.43-0.664-2.94-0.748-4.5-0.748h-3.87c-0.504 0-1.25-0.139-1.73 0.0528-0.598 0.244-0.598 1.06 0 1.31 0.276 0.112 0.648 0.0528 0.941 0.0528h1.99m3.61 0.0149c4.25-0.508 7.35 4.29 5.15 7.93-0.337 0.558-0.766 1.04-1.28 1.44-0.866 0.661-1.86 0.983-2.93 1.11-0.662 0.0783-1.41-0.0254-2.04-0.229-0.837-0.27-1.62-0.7-2.25-1.33-2.31-2.31-1.85-6.17 0.782-8.01 0.758-0.531 1.65-0.805 2.56-0.914m-11.1 1.95c-0.481 0.127-0.68 0.728-0.337 1.1 0.226 0.247 0.655 0.279 0.964 0.198 0.481-0.127 0.68-0.728 0.337-1.1-0.226-0.247-0.655-0.279-0.964-0.198m10.3 1.02c-0.273 0.161-0.448 0.672-0.601 0.94-0.208 0.366-0.667 0.884-0.713 1.31-0.0235 0.219 0.172 0.45 0.277 0.627 0.269 0.454 0.57 1.37 1.01 1.67 0.309 0.213 1.16 0.0538 1.54 0.0538 0.309 0 0.867 0.107 1.14-0.0538 0.448-0.264 0.799-1.28 1.06-1.72 0.0931-0.162 0.271-0.379 0.255-0.575-0.0336-0.415-0.507-0.949-0.711-1.31-0.153-0.268-0.328-0.779-0.601-0.94-0.342-0.202-1.11-0.0538-1.51-0.0538-0.309 0-0.867-0.107-1.14 0.0538m0.794 1.34c1.01-0.472 1.87 0.613 1.35 1.48-0.0759 0.127-0.15 0.32-0.292 0.387-0.956 0.448-1.9-0.559-1.38-1.43 0.0829-0.139 0.168-0.366 0.324-0.439z" fill="#030303"/>
</svg>
